<svg id="svg" version="1.1" width="400" height="400" viewBox="0 0 400 400" xmlns="http://www.w3.org/2000/svg" xmlns:xlink="http://www.w3.org/1999/xlink"><g id="svgg"><path id="path0" d="M-0.000 43.795 L 0.000 78.000 1.800 78.000 L 3.600 78.000 3.600 83.600 C 3.600 90.349,3.834 90.800,7.340 90.800 L 9.479 90.800 9.718 94.900 C 10.089 101.270,11.071 102.800,14.787 102.800 L 16.000 102.800 16.000 105.520 C 16.000 108.923,16.274 109.200,19.650 109.200 L 22.341 109.200 22.470 114.981 C 22.620 121.670,22.624 121.678,25.994 121.922 L 28.400 122.096 28.413 124.748 C 28.421 126.443,28.637 127.680,29.013 128.176 C 29.336 128.604,29.600 129.265,29.600 129.646 C 29.600 130.830,31.567 132.760,33.229 133.208 L 34.800 133.631 34.800 136.735 C 34.800 140.562,35.013 140.800,38.442 140.800 L 41.123 140.800 41.262 146.381 C 41.422 152.846,41.439 152.879,44.794 153.122 L 47.200 153.296 47.200 156.061 C 47.200 158.110,47.350 158.883,47.782 159.048 C 48.102 159.171,48.742 160.055,49.206 161.012 C 49.833 162.309,50.500 162.971,51.824 163.612 L 53.600 164.471 53.600 167.607 C 53.600 171.549,53.969 172.000,57.189 172.000 L 59.522 172.000 59.661 177.386 C 59.826 183.767,59.935 183.961,63.532 184.287 L 65.968 184.508 66.084 187.554 L 66.200 190.600 69.300 190.717 L 72.400 190.834 72.400 196.388 C 72.400 203.021,72.494 203.200,75.981 203.200 L 78.305 203.200 78.467 208.373 C 78.661 214.627,78.892 215.035,82.449 215.437 L 84.800 215.703 84.800 218.372 C 84.800 221.723,85.081 222.000,88.480 222.000 L 91.200 222.000 91.200 227.426 C 91.200 234.241,91.277 234.400,94.558 234.400 L 97.088 234.400 97.288 238.929 C 97.579 245.507,97.721 245.710,102.700 246.646 C 103.528 246.802,103.600 247.032,103.600 249.528 C 103.600 252.890,103.893 253.200,107.080 253.200 L 109.600 253.200 109.600 258.600 C 109.600 265.220,109.817 265.600,113.600 265.600 L 116.000 265.600 116.002 268.300 C 116.008 275.115,116.988 277.182,120.367 277.506 L 122.400 277.702 122.400 280.571 C 122.400 284.100,122.670 284.400,125.850 284.400 L 128.340 284.400 128.470 289.981 C 128.622 296.501,128.621 296.500,132.201 296.728 L 134.800 296.893 134.800 300.047 C 134.800 301.781,134.960 303.200,135.155 303.200 C 135.351 303.200,135.634 303.857,135.785 304.660 C 136.172 306.723,137.959 308.400,139.769 308.400 L 141.200 308.400 141.200 311.367 C 141.200 315.605,141.196 315.600,144.426 315.600 L 147.166 315.600 147.283 318.700 L 147.400 321.800 150.600 322.027 C 152.360 322.151,119.195 322.286,76.900 322.327 L 0.000 322.400 0.000 356.600 L 0.000 390.800 47.300 390.798 C 93.108 390.797,105.838 390.610,104.182 389.962 C 103.630 389.746,103.929 389.646,105.200 389.622 C 106.345 389.600,106.806 389.465,106.466 389.250 C 106.040 388.979,106.065 388.861,106.592 388.658 C 106.954 388.519,107.139 388.224,107.002 388.003 C 106.865 387.781,106.965 387.600,107.225 387.600 C 107.578 387.600,107.571 387.447,107.200 387.000 C 106.829 386.553,106.822 386.400,107.175 386.400 C 107.435 386.400,107.545 386.235,107.421 386.034 C 107.297 385.833,107.421 385.587,107.698 385.487 C 109.017 385.009,105.584 384.397,99.400 384.007 C 95.660 383.771,89.990 383.406,86.800 383.195 C 74.113 382.357,58.101 381.980,36.658 382.013 C 8.346 382.057,9.377 382.271,7.299 375.931 C 6.112 372.311,6.087 372.081,6.453 368.200 C 6.665 365.953,6.714 359.170,6.565 352.721 L 6.300 341.242 7.365 339.423 C 9.892 335.111,4.244 335.369,91.000 335.600 C 172.374 335.816,171.103 335.845,169.790 333.840 C 169.479 333.366,168.971 331.766,168.660 330.284 C 168.112 327.668,166.617 324.808,165.796 324.803 C 164.491 324.794,162.027 321.319,160.972 318.000 C 160.501 316.516,159.650 315.131,158.355 313.744 C 157.300 312.613,156.313 311.173,156.162 310.544 C 155.763 308.884,154.078 306.049,152.361 304.146 C 150.605 302.200,149.745 300.634,148.935 297.906 C 148.495 296.424,147.754 295.333,146.039 293.639 C 143.823 291.450,142.246 288.431,141.421 284.800 C 141.296 284.250,140.636 283.440,139.954 283.000 C 138.627 282.144,138.231 281.531,136.616 277.832 C 136.047 276.529,134.767 274.592,133.770 273.527 C 132.067 271.705,130.013 268.067,130.004 266.854 C 129.996 265.802,128.349 263.385,127.184 262.717 C 125.955 262.011,125.679 261.510,123.545 256.100 C 122.829 254.285,122.112 252.800,121.952 252.800 C 121.035 252.800,119.179 250.539,118.578 248.688 C 117.603 245.690,116.006 242.976,114.797 242.262 C 113.536 241.517,111.842 238.521,111.169 235.846 C 110.813 234.431,110.218 233.460,109.007 232.320 C 107.781 231.167,106.810 229.570,105.367 226.338 C 103.852 222.943,103.139 221.793,102.265 221.336 C 101.506 220.940,100.805 219.991,100.151 218.472 C 98.229 214.011,97.105 212.024,96.374 211.792 C 95.376 211.475,93.102 207.602,92.034 204.400 C 91.387 202.459,90.857 201.597,89.940 201.000 C 88.528 200.079,88.100 199.369,86.366 195.075 C 85.449 192.804,84.583 191.437,83.197 190.072 C 81.833 188.730,81.114 187.606,80.676 186.132 C 79.919 183.584,79.094 182.258,76.983 180.200 C 75.669 178.918,75.110 177.889,74.177 175.029 C 73.174 171.955,72.805 171.315,71.530 170.429 C 69.958 169.337,69.645 168.835,67.393 163.800 C 66.426 161.638,65.402 160.081,64.238 159.000 C 62.927 157.784,62.303 156.758,61.632 154.723 C 61.041 152.930,60.222 151.478,59.149 150.323 C 57.488 148.536,55.679 145.338,54.805 142.643 C 54.503 141.710,53.450 140.262,52.180 139.032 C 51.008 137.897,49.932 136.447,49.772 135.789 C 49.275 133.733,47.191 129.951,45.726 128.446 C 44.174 126.851,43.306 125.293,42.162 122.045 C 41.657 120.614,40.956 119.549,40.073 118.876 C 38.629 117.775,37.523 115.803,35.824 111.300 C 35.006 109.130,34.543 108.400,33.985 108.400 C 33.159 108.400,31.457 106.351,30.995 104.800 C 30.380 102.739,28.633 99.737,26.968 97.883 C 25.806 96.589,25.032 95.223,24.587 93.683 C 23.701 90.615,22.596 88.765,21.069 87.793 C 20.071 87.159,19.400 86.047,17.929 82.593 C 16.900 80.177,15.842 78.020,15.578 77.800 C 13.376 75.966,12.133 74.333,11.640 72.627 C 11.331 71.562,10.232 69.585,9.196 68.233 C 7.662 66.231,7.231 65.297,6.872 63.188 C 6.341 60.075,6.157 27.378,6.663 26.200 C 8.007 23.073,9.657 21.266,12.109 20.236 L 14.600 19.190 106.400 19.310 C 190.901 19.419,198.391 19.482,200.600 20.100 C 206.960 21.879,240.870 18.157,241.235 15.639 C 241.561 13.385,241.476 12.729,240.800 12.307 C 240.112 11.878,240.107 11.809,240.730 11.335 C 241.354 10.861,241.354 10.825,240.733 10.813 C 240.367 10.806,239.992 10.575,239.900 10.300 C 239.767 9.902,215.330 9.779,119.867 9.695 L -0.000 9.591 -0.000 43.795 M199.873 65.259 C 198.727 65.478,169.651 65.581,128.168 65.514 C 66.422 65.413,58.370 65.469,58.215 66.000 C 57.072 69.917,58.010 74.800,59.905 74.800 C 61.191 74.800,62.174 75.857,63.762 78.949 C 64.622 80.621,65.719 82.248,66.201 82.564 C 67.405 83.352,69.625 86.908,70.449 89.365 C 70.971 90.921,71.533 91.686,72.837 92.613 C 73.821 93.314,74.698 94.329,74.910 95.013 C 75.880 98.145,78.308 102.674,79.683 103.919 C 80.604 104.753,81.487 106.122,82.014 107.531 C 83.203 110.712,84.416 112.751,85.280 113.025 C 86.247 113.332,88.178 116.736,89.235 120.000 C 89.897 122.040,90.500 123.001,92.039 124.461 C 93.118 125.484,94.000 126.535,94.000 126.796 C 94.000 128.205,96.982 133.849,98.519 135.348 C 99.564 136.367,100.427 137.689,100.772 138.800 C 101.539 141.267,103.183 143.864,104.299 144.373 C 105.346 144.849,108.400 150.758,108.400 152.305 C 108.400 153.685,109.007 154.607,110.492 155.483 C 111.538 156.100,112.207 157.145,113.791 160.629 C 115.136 163.590,116.299 165.516,117.395 166.600 C 118.353 167.547,119.243 168.934,119.577 170.000 C 120.497 172.931,121.199 174.120,122.882 175.600 C 124.428 176.959,124.713 177.512,126.482 182.600 C 127.119 184.432,127.823 185.477,129.458 187.015 C 130.636 188.124,131.600 189.275,131.600 189.573 C 131.600 190.756,134.687 196.218,136.077 197.495 C 136.914 198.264,137.840 199.662,138.216 200.725 C 139.562 204.529,140.183 205.695,141.734 207.329 C 143.276 208.954,144.354 210.974,145.786 214.922 C 146.285 216.298,146.915 217.130,148.007 217.852 C 149.132 218.596,149.768 219.457,150.432 221.131 C 151.718 224.373,153.109 226.722,155.026 228.886 C 156.279 230.300,156.959 231.614,157.746 234.137 C 158.597 236.867,159.051 237.696,160.150 238.535 C 161.797 239.791,163.262 242.222,164.225 245.299 C 164.795 247.118,165.340 247.930,166.841 249.195 C 168.030 250.198,168.917 251.354,169.223 252.297 C 170.098 255.001,171.653 257.770,173.211 259.400 C 174.214 260.449,175.038 261.896,175.605 263.600 C 176.730 266.984,177.877 268.999,179.031 269.617 C 180.047 270.160,182.429 274.408,183.221 277.088 C 183.570 278.271,184.282 279.250,185.601 280.362 C 187.323 281.814,187.629 282.361,189.191 286.775 C 190.151 289.487,191.119 291.600,191.403 291.600 C 192.205 291.600,194.691 294.593,194.979 295.905 C 195.123 296.562,195.667 297.499,196.187 297.988 L 197.132 298.876 197.807 297.846 C 198.780 296.360,199.171 279.914,198.255 278.997 C 197.926 278.669,197.464 278.400,197.229 278.400 C 196.951 278.400,196.799 276.890,196.798 274.100 C 196.794 267.178,196.091 266.011,191.917 266.002 C 190.843 266.000,190.833 265.974,190.717 262.900 L 190.600 259.800 187.600 259.600 L 184.600 259.400 184.400 253.684 C 184.170 247.098,184.239 247.215,180.539 247.206 L 178.078 247.200 177.939 241.814 C 177.776 235.515,177.647 235.271,174.279 234.923 L 172.032 234.691 171.916 231.646 L 171.800 228.600 168.700 228.483 L 165.600 228.366 165.600 222.812 C 165.600 216.105,165.541 216.000,161.771 216.000 L 159.200 216.000 159.177 211.500 C 159.143 204.678,158.613 203.745,154.717 203.640 L 153.234 203.600 153.117 200.500 L 153.000 197.400 150.000 197.200 L 147.000 197.000 146.800 191.284 C 146.571 184.731,146.619 184.815,143.100 184.806 L 140.800 184.800 140.800 180.260 C 140.800 173.478,140.109 172.410,135.717 172.402 L 134.434 172.400 134.317 169.300 L 134.200 166.200 131.100 166.083 L 128.000 165.966 128.000 160.412 C 128.000 153.776,127.907 153.600,124.410 153.600 L 122.077 153.600 121.938 148.019 C 121.779 141.574,121.829 141.666,118.287 141.335 L 115.632 141.087 115.516 138.044 L 115.400 135.000 112.400 134.800 L 109.400 134.600 109.200 129.000 C 108.959 122.248,109.038 122.400,105.776 122.400 L 103.200 122.400 103.198 117.900 C 103.194 110.681,102.539 109.610,98.118 109.602 L 96.835 109.600 96.718 106.700 L 96.600 103.800 93.700 103.682 L 90.800 103.565 90.800 97.797 C 90.800 91.112,90.852 91.200,86.880 91.200 L 84.508 91.200 84.316 86.225 C 84.110 80.860,83.612 79.381,81.895 79.029 C 81.403 78.928,80.280 78.674,79.400 78.464 C 78.366 78.218,105.100 78.067,155.000 78.038 C 219.562 78.001,232.911 77.899,236.543 77.420 C 240.492 76.898,242.470 76.400,240.590 76.400 C 239.881 76.400,239.883 76.373,240.624 75.813 C 241.379 75.242,241.375 75.225,240.476 75.213 C 239.839 75.204,239.650 75.045,239.865 74.700 C 240.037 74.425,240.209 74.020,240.247 73.800 C 240.285 73.580,240.380 73.151,240.458 72.847 C 240.555 72.469,239.585 71.950,237.400 71.211 C 230.197 68.774,223.585 66.438,223.174 66.184 C 221.601 65.212,203.807 64.505,199.873 65.259 " stroke="none" fill="#e5ece9" fill-rule="evenodd"></path><path id="path1" d="M206.187 23.345 C 202.989 23.738,201.426 25.092,201.943 27.022 C 202.085 27.548,202.110 35.396,202.000 44.463 C 201.775 63.018,201.700 62.504,204.702 62.956 C 210.708 63.860,306.324 63.154,332.697 62.011 C 342.278 61.595,344.658 61.915,347.200 63.960 C 348.974 65.387,349.083 66.002,347.828 67.494 C 347.272 68.155,346.560 69.664,346.246 70.848 C 345.195 74.808,344.723 75.516,342.100 77.069 C 341.165 77.623,340.400 78.311,340.400 78.597 C 340.400 79.953,336.660 86.517,335.530 87.144 C 334.675 87.619,333.861 88.818,332.576 91.495 C 331.259 94.240,330.448 95.423,329.421 96.095 C 328.251 96.861,327.767 97.705,326.262 101.600 C 324.684 105.683,324.303 106.324,322.875 107.304 C 321.526 108.230,321.127 108.843,320.402 111.104 C 319.442 114.099,317.664 117.136,316.425 117.899 C 315.506 118.465,313.836 121.566,313.423 123.473 C 313.253 124.262,312.436 125.394,311.274 126.452 C 309.116 128.416,308.434 129.431,308.414 130.708 C 308.381 132.827,306.389 136.589,304.236 138.600 C 302.513 140.209,301.967 141.043,301.446 142.866 C 301.043 144.274,300.155 145.916,299.099 147.205 C 298.164 148.345,297.085 149.666,296.700 150.139 C 296.315 150.613,295.408 152.440,294.684 154.200 C 293.714 156.559,293.041 157.610,292.122 158.200 C 291.109 158.850,290.587 159.782,289.338 163.176 C 287.853 167.209,287.467 167.791,284.435 170.575 C 283.970 171.001,283.396 172.081,283.159 172.975 C 282.487 175.500,280.379 179.175,278.996 180.230 C 277.775 181.161,276.771 183.026,275.400 186.911 C 274.962 188.151,274.194 189.249,273.214 190.037 C 272.005 191.009,271.434 191.977,270.352 194.896 C 269.068 198.359,268.584 199.065,265.626 201.784 C 265.157 202.215,264.494 203.565,264.152 204.784 C 263.478 207.184,261.789 209.871,259.711 211.847 C 258.990 212.533,258.400 213.339,258.400 213.639 C 258.400 215.369,256.216 219.699,254.638 221.098 C 253.305 222.279,252.651 223.359,251.572 226.155 C 250.290 229.476,249.668 230.371,246.826 232.984 C 246.357 233.415,245.687 234.765,245.337 235.984 C 244.477 238.976,243.769 240.298,241.980 242.254 C 240.222 244.177,239.351 245.748,238.555 248.428 C 238.134 249.845,237.471 250.807,236.042 252.076 C 234.790 253.188,233.921 254.368,233.595 255.400 C 232.552 258.702,230.461 262.297,229.091 263.143 C 227.604 264.063,227.176 264.775,226.173 268.000 C 225.068 271.554,223.983 273.565,222.792 274.268 C 221.702 274.912,220.501 277.100,219.595 280.091 C 219.320 281.000,218.447 282.195,217.355 283.156 C 215.836 284.493,215.388 285.262,214.381 288.265 C 212.909 292.652,211.981 294.202,210.202 295.252 C 209.197 295.845,208.694 296.507,208.389 297.641 C 207.909 299.423,206.018 301.763,204.371 302.615 C 201.941 303.871,201.925 304.118,201.918 340.926 C 201.911 377.916,201.800 376.411,204.572 376.982 C 205.247 377.121,244.770 377.231,292.400 377.226 C 363.891 377.219,379.486 377.313,381.788 377.763 L 384.577 378.308 386.518 376.654 C 387.585 375.744,389.118 374.432,389.923 373.737 L 391.387 372.473 390.593 369.737 C 389.866 367.227,389.807 365.919,389.880 353.946 L 389.960 340.891 387.588 339.827 L 385.216 338.762 306.839 338.822 C 232.315 338.879,228.403 338.847,227.255 338.169 C 224.292 336.419,224.200 333.027,227.037 330.189 C 227.809 329.418,228.699 328.052,229.016 327.155 C 229.602 325.494,233.172 320.679,234.275 320.062 C 234.610 319.874,235.720 318.029,236.742 315.961 C 238.177 313.056,238.941 311.980,240.100 311.233 C 240.925 310.701,241.600 309.981,241.600 309.633 C 241.600 308.923,242.917 305.324,243.868 303.437 C 244.210 302.757,245.356 301.363,246.413 300.339 C 247.966 298.837,248.473 297.990,249.045 295.939 C 249.628 293.846,250.116 293.048,251.819 291.400 C 253.520 289.754,254.126 288.764,255.243 285.807 C 256.317 282.965,256.989 281.837,258.463 280.407 C 259.674 279.232,260.476 278.035,260.755 276.985 C 261.401 274.558,263.528 270.878,264.848 269.901 C 266.328 268.807,267.342 267.091,268.149 264.317 C 268.638 262.635,269.229 261.724,270.726 260.345 C 272.627 258.594,272.973 257.925,275.272 251.560 C 275.478 250.989,276.423 249.974,277.371 249.306 C 278.872 248.248,279.205 247.728,279.948 245.280 C 280.753 242.629,283.477 238.400,284.380 238.400 C 284.776 238.400,286.316 235.275,287.380 232.311 C 287.771 231.222,288.595 229.992,289.329 229.405 C 290.028 228.846,290.825 228.204,291.100 227.978 C 291.375 227.753,291.600 227.072,291.600 226.464 C 291.600 225.857,291.752 225.189,291.938 224.980 C 292.123 224.771,292.685 223.563,293.186 222.295 C 293.729 220.920,294.603 219.587,295.349 218.993 C 297.603 217.197,298.009 216.667,298.567 214.785 C 299.533 211.535,301.726 208.000,302.778 208.000 C 303.303 208.000,305.002 204.871,305.799 202.436 C 306.265 201.012,307.089 199.690,308.210 198.568 C 309.310 197.469,310.165 196.111,310.620 194.740 C 311.816 191.140,313.150 188.894,314.990 187.387 C 316.419 186.216,316.921 185.433,317.632 183.270 C 318.474 180.709,320.676 177.134,321.802 176.501 C 322.603 176.051,324.800 171.668,324.800 170.519 C 324.800 169.553,326.809 167.123,327.905 166.763 C 328.182 166.671,329.040 164.888,329.810 162.798 C 331.053 159.426,331.473 158.753,333.556 156.800 C 335.567 154.915,336.004 154.240,336.608 152.087 C 337.152 150.146,337.800 149.029,339.456 147.172 C 340.635 145.851,341.600 144.529,341.600 144.235 C 341.600 143.001,344.400 137.661,345.464 136.866 C 347.488 135.354,347.911 134.777,348.389 132.873 C 349.277 129.343,352.087 124.800,353.384 124.800 C 353.924 124.800,354.936 122.841,355.780 120.163 C 356.140 119.023,357.181 117.237,358.145 116.108 C 359.115 114.971,360.377 112.804,361.034 111.145 C 361.921 108.903,362.731 107.675,364.422 106.000 C 366.222 104.217,366.810 103.287,367.521 101.093 C 368.555 97.904,369.998 95.482,371.415 94.553 C 372.781 93.659,374.296 90.989,374.633 88.887 C 374.845 87.559,375.282 86.841,376.582 85.687 C 377.805 84.601,378.613 83.337,379.577 81.000 C 381.656 75.958,382.275 74.918,383.357 74.646 C 384.569 74.342,385.800 72.675,386.197 70.800 C 386.360 70.030,386.840 68.680,387.263 67.800 C 389.363 63.431,390.384 59.356,389.986 56.927 C 389.207 52.171,389.502 34.012,390.400 31.400 C 391.547 28.065,391.505 27.946,388.591 26.270 L 385.981 24.769 358.466 24.792 C 331.138 24.814,309.771 24.421,290.600 23.541 C 278.797 23.000,210.296 22.841,206.187 23.345 " stroke="none" fill="#ed8b23" fill-rule="evenodd"></path><path id="path2" d="M280.600 10.000 C 281.920 10.146,282.550 10.314,282.000 10.373 L 281.000 10.480 282.000 10.800 C 282.550 10.976,282.730 11.141,282.400 11.166 C 281.867 11.207,281.867 11.255,282.400 11.600 C 282.933 11.945,282.933 11.989,282.400 12.000 C 282.007 12.008,281.953 12.114,282.243 12.306 C 282.487 12.468,282.638 12.914,282.579 13.298 C 282.520 13.683,282.624 14.091,282.811 14.207 C 282.998 14.322,283.087 14.750,283.008 15.158 C 282.845 16.003,281.326 15.829,300.400 17.152 C 319.130 18.451,331.584 18.799,359.458 18.799 C 389.932 18.800,389.525 18.756,392.155 22.339 C 394.560 25.616,394.508 25.139,394.479 43.600 C 394.444 65.224,394.412 65.581,392.233 67.968 C 390.105 70.299,389.380 71.470,389.003 73.187 C 388.598 75.030,387.338 76.882,385.804 77.887 C 384.787 78.554,384.217 79.565,382.835 83.156 C 381.224 87.340,379.901 89.200,378.534 89.200 C 378.035 89.200,377.222 90.631,376.398 92.958 C 374.770 97.552,374.423 98.232,373.110 99.391 C 371.335 100.957,370.662 102.091,369.853 104.874 C 369.208 107.096,368.059 108.473,366.416 108.995 C 365.934 109.148,365.205 110.606,364.198 113.431 C 362.746 117.508,361.091 120.000,359.837 120.000 C 359.223 120.000,358.537 121.327,358.180 123.200 C 357.783 125.287,355.598 129.179,354.278 130.148 C 353.100 131.014,351.200 134.257,351.200 135.403 C 351.200 136.665,349.523 139.272,348.214 140.045 C 347.476 140.480,346.780 141.054,346.667 141.318 C 346.555 141.583,345.823 143.409,345.040 145.375 C 343.917 148.197,343.208 149.341,341.674 150.804 C 340.212 152.198,339.610 153.136,339.244 154.589 C 338.564 157.293,337.958 158.327,335.682 160.677 C 334.452 161.946,333.438 163.468,333.026 164.665 C 331.801 168.216,330.606 170.171,329.276 170.800 C 328.023 171.392,327.438 172.561,324.819 179.710 C 324.595 180.320,323.807 181.177,323.067 181.613 C 321.577 182.493,320.707 183.994,319.948 187.000 C 319.570 188.496,318.969 189.462,317.564 190.833 C 315.540 192.806,314.251 195.011,313.355 198.025 C 312.967 199.333,312.326 200.308,311.296 201.155 C 310.473 201.832,309.485 202.659,309.100 202.993 C 308.699 203.341,308.400 204.160,308.400 204.911 C 308.400 207.068,305.908 211.797,304.428 212.449 C 303.225 212.978,301.200 216.144,301.200 217.494 C 301.200 218.538,299.658 221.016,298.222 222.280 C 296.832 223.504,294.400 228.045,294.400 229.417 C 294.400 229.766,293.431 230.985,292.246 232.126 C 290.497 233.810,289.963 234.650,289.407 236.595 C 288.411 240.077,287.773 241.168,285.426 243.400 C 283.637 245.100,283.192 245.833,282.454 248.286 C 281.717 250.734,281.313 251.400,279.793 252.671 C 278.807 253.495,277.885 254.536,277.745 254.985 C 277.605 255.433,277.086 256.700,276.593 257.800 C 276.100 258.900,275.453 260.492,275.154 261.338 C 274.803 262.333,274.186 263.096,273.406 263.498 C 271.843 264.303,271.114 265.360,270.508 267.700 C 269.622 271.124,267.376 274.800,266.170 274.800 C 265.480 274.800,264.202 277.102,263.444 279.708 C 262.833 281.809,262.386 282.362,259.318 284.813 C 259.054 285.024,258.727 285.873,258.593 286.699 C 257.977 290.487,255.391 294.800,253.734 294.800 C 253.171 294.800,252.404 296.304,251.541 299.096 C 250.580 302.207,249.273 304.406,247.722 305.520 C 246.520 306.384,245.001 309.041,244.590 311.000 C 244.445 311.689,243.522 312.988,242.422 314.050 C 241.039 315.386,240.317 316.501,239.827 318.059 C 238.681 321.702,237.165 324.116,235.543 324.880 C 233.648 325.772,232.561 327.629,232.208 330.574 C 232.052 331.880,231.770 333.352,231.582 333.847 C 231.040 335.273,229.331 335.241,310.858 335.323 C 393.598 335.405,390.141 335.320,392.338 337.338 C 394.301 339.142,394.305 339.177,394.424 357.000 C 394.572 379.086,394.236 380.497,388.514 381.843 C 384.205 382.857,203.796 382.639,202.122 381.618 C 198.380 379.336,198.382 379.351,198.457 340.000 C 198.525 304.848,198.489 303.973,196.927 302.883 C 194.321 301.062,193.400 300.050,192.371 297.872 C 191.647 296.342,190.752 295.169,189.828 294.541 C 188.134 293.391,187.114 291.521,186.017 287.563 C 185.305 284.996,184.970 284.436,183.235 282.918 C 181.634 281.517,181.098 280.697,180.384 278.552 C 179.726 276.575,178.938 275.286,177.250 273.423 C 175.315 271.288,174.916 270.569,174.441 268.367 C 173.746 265.146,173.003 263.841,171.180 262.634 C 169.699 261.654,167.693 258.101,166.832 254.933 C 166.547 253.884,165.802 252.874,164.474 251.735 C 162.876 250.364,162.337 249.533,161.425 247.032 C 160.678 244.985,159.742 243.355,158.556 242.036 C 156.763 240.042,155.225 237.200,155.209 235.854 C 155.196 234.733,153.558 232.041,152.729 231.777 C 151.494 231.385,150.074 229.108,148.610 225.171 C 147.840 223.099,146.997 221.332,146.738 221.246 C 145.206 220.735,143.534 218.409,142.471 215.305 C 141.589 212.733,140.919 211.563,139.421 209.982 C 138.031 208.513,137.294 207.287,136.749 205.536 C 135.826 202.570,134.856 200.872,133.913 200.572 C 132.717 200.193,131.243 197.871,129.961 194.349 C 128.935 191.528,128.432 190.727,126.771 189.269 C 125.687 188.317,124.800 187.199,124.800 186.784 C 124.800 185.101,123.066 181.571,121.181 179.418 C 119.100 177.040,117.600 174.506,117.600 173.370 C 117.600 172.586,115.982 169.600,115.557 169.600 C 114.012 169.600,112.619 167.179,110.201 160.300 C 109.834 159.255,109.295 158.400,109.002 158.400 C 108.085 158.400,106.527 156.150,105.396 153.190 C 104.684 151.325,103.617 149.557,102.308 148.070 C 100.291 145.780,99.801 144.913,98.624 141.559 C 97.965 139.679,97.566 139.174,95.323 137.386 C 94.006 136.336,91.605 131.008,91.595 129.113 C 91.592 128.511,90.843 127.545,89.395 126.275 C 88.188 125.216,87.200 124.188,87.200 123.990 C 87.200 122.554,85.216 118.799,83.354 116.714 C 81.689 114.847,81.001 113.669,80.378 111.617 C 79.575 108.973,78.997 108.160,76.521 106.185 C 75.818 105.624,75.136 104.768,75.005 104.282 C 73.508 98.735,72.562 96.671,71.091 95.737 C 69.923 94.995,69.222 94.020,67.982 91.410 C 66.960 89.260,65.943 87.729,65.169 87.178 C 63.584 86.049,62.076 83.626,60.951 80.400 C 60.224 78.315,59.782 77.657,58.722 77.079 C 56.212 75.711,54.971 73.975,54.263 70.839 C 53.903 69.242,53.242 67.471,52.795 66.903 L 51.983 65.870 52.869 64.926 C 53.357 64.407,54.686 63.528,55.822 62.972 L 57.888 61.961 127.510 61.990 L 197.132 62.019 197.921 60.909 C 199.083 59.274,199.001 27.685,197.830 25.900 L 197.108 24.800 105.924 24.800 L 14.740 24.800 11.970 26.418 C 10.446 27.307,9.200 28.172,9.200 28.340 C 9.200 28.508,9.574 29.752,10.031 31.105 C 10.777 33.315,10.993 51.280,10.367 59.000 C 10.331 59.440,10.969 61.600,11.785 63.800 C 12.601 66.000,13.569 68.790,13.937 70.000 C 14.847 72.990,15.261 73.603,17.054 74.606 C 18.420 75.371,18.804 75.962,20.405 79.769 C 21.664 82.765,22.598 84.391,23.484 85.134 C 24.354 85.864,25.025 87.015,25.610 88.784 C 26.564 91.667,27.556 93.235,29.516 94.956 C 31.134 96.376,31.882 97.760,33.000 101.400 C 33.747 103.835,34.078 104.347,35.532 105.328 C 37.064 106.361,40.800 112.794,40.800 114.398 C 40.800 114.619,40.980 114.800,41.200 114.800 C 41.420 114.800,41.600 114.999,41.600 115.242 C 41.600 115.486,42.017 116.013,42.526 116.413 C 43.443 117.135,44.088 118.413,45.395 122.105 C 45.894 123.514,46.512 124.314,47.768 125.178 C 49.572 126.419,51.089 129.169,52.014 132.873 C 52.491 134.784,52.700 135.062,55.276 137.210 C 56.099 137.896,56.960 139.094,57.224 139.920 C 57.484 140.734,57.855 141.571,58.048 141.780 C 58.242 141.989,58.400 142.567,58.400 143.065 C 58.400 143.594,59.293 144.971,60.548 146.378 C 62.751 148.846,63.243 149.747,63.996 152.697 C 64.315 153.947,65.093 155.051,66.956 156.897 C 69.197 159.116,69.607 159.776,70.581 162.722 C 71.186 164.549,71.952 166.259,72.285 166.522 C 74.372 168.173,75.157 169.266,75.937 171.605 C 76.569 173.502,77.445 174.942,79.191 176.959 C 81.431 179.547,82.391 181.367,83.002 184.186 C 83.156 184.900,84.120 186.176,85.420 187.386 C 87.526 189.348,89.439 192.730,90.174 195.787 C 90.330 196.440,91.131 197.549,91.953 198.253 C 92.775 198.956,93.769 200.312,94.161 201.266 C 95.951 205.620,96.857 207.218,98.023 208.076 C 99.579 209.222,100.923 211.513,101.750 214.430 C 102.264 216.244,102.746 216.966,104.336 218.307 C 106.284 219.950,107.486 222.189,108.794 226.613 C 109.109 227.678,109.664 228.451,110.427 228.890 C 111.795 229.675,113.043 231.580,113.641 233.800 C 114.212 235.915,115.134 237.354,117.580 239.949 C 119.101 241.561,119.761 242.659,120.228 244.349 C 121.105 247.526,121.528 248.245,123.161 249.336 C 124.371 250.145,124.850 250.946,126.172 254.381 C 127.498 257.826,128.011 258.683,129.451 259.863 C 130.576 260.785,131.389 261.898,131.838 263.131 C 133.307 267.162,133.962 268.333,135.592 269.837 C 137.422 271.528,138.843 273.990,139.591 276.768 C 139.915 277.970,140.619 279.039,141.827 280.164 C 143.491 281.714,143.856 282.389,146.709 289.200 C 146.847 289.530,147.393 290.160,147.922 290.600 C 150.079 292.394,150.403 292.884,151.232 295.614 C 151.966 298.032,152.442 298.803,154.386 300.731 C 156.677 303.000,158.400 306.356,158.400 308.545 C 158.400 309.484,158.745 309.900,161.243 311.981 C 162.234 312.806,162.968 313.956,163.585 315.646 C 164.211 317.365,165.168 318.848,166.750 320.555 C 169.605 323.636,170.675 325.148,171.360 327.074 C 171.658 327.913,172.509 329.241,173.251 330.024 C 176.005 332.931,175.800 336.601,172.800 338.099 C 171.482 338.758,166.861 338.799,93.450 338.799 L 15.500 338.800 13.117 339.870 L 10.733 340.939 10.992 353.370 C 11.232 364.939,11.195 366.022,10.455 369.000 L 9.660 372.200 12.785 375.328 L 15.910 378.455 18.984 378.028 C 22.866 377.488,54.166 377.466,72.762 377.990 C 80.373 378.205,93.710 378.575,102.400 378.813 C 128.563 379.529,148.621 380.954,158.200 382.779 C 160.400 383.198,163.403 383.752,164.873 384.010 C 167.372 384.450,168.526 385.227,167.563 385.823 C 167.301 385.985,167.323 386.266,167.626 386.631 C 167.988 387.067,167.949 387.245,167.447 387.437 C 167.094 387.573,166.904 387.845,167.026 388.042 C 167.148 388.239,167.012 388.406,166.724 388.414 C 166.436 388.422,166.627 388.665,167.149 388.954 L 168.098 389.480 166.799 389.740 C 166.084 389.883,165.073 390.000,164.550 390.000 C 164.028 390.000,163.600 390.180,163.600 390.400 C 163.600 390.666,203.267 390.800,281.800 390.800 L 400.000 390.800 400.000 356.600 L 400.000 322.400 323.300 322.327 C 281.115 322.286,248.040 322.151,249.800 322.027 L 253.000 321.800 253.117 318.700 L 253.234 315.600 255.737 315.600 C 258.935 315.600,259.200 315.305,259.200 311.749 L 259.200 308.858 261.423 308.580 C 264.572 308.186,265.600 305.971,265.600 299.580 L 265.600 296.800 268.000 296.800 C 271.783 296.800,272.000 296.420,272.000 289.800 L 272.000 284.400 274.520 284.400 C 277.706 284.400,278.000 284.090,278.000 280.734 L 278.000 278.028 280.023 277.759 C 283.657 277.277,284.373 275.889,284.390 269.300 L 284.400 265.600 286.800 265.600 C 290.583 265.600,290.800 265.220,290.800 258.600 L 290.800 253.200 293.320 253.200 C 296.503 253.200,296.800 252.888,296.800 249.549 L 296.800 246.858 298.984 246.585 C 302.660 246.125,303.149 245.136,303.183 238.100 L 303.200 234.400 305.786 234.400 C 309.131 234.400,309.200 234.259,309.200 227.443 L 309.200 222.034 312.300 221.917 L 315.400 221.800 315.516 218.754 L 315.632 215.708 318.068 215.487 C 321.665 215.161,321.774 214.967,321.939 208.586 L 322.078 203.200 324.339 203.194 C 327.814 203.184,327.771 203.261,328.000 196.716 L 328.200 191.000 331.200 190.800 L 334.200 190.600 334.316 187.547 L 334.432 184.494 336.828 184.321 C 340.437 184.059,340.575 183.815,340.731 177.387 L 340.862 172.000 343.351 172.000 C 346.561 172.000,346.800 171.721,346.800 167.965 L 346.800 164.889 348.260 164.615 C 350.128 164.265,351.865 162.528,352.215 160.660 C 352.366 159.857,352.649 159.200,352.845 159.200 C 353.040 159.200,353.200 157.850,353.200 156.200 L 353.200 153.200 355.324 153.200 C 358.856 153.200,358.979 152.982,359.130 146.433 L 359.260 140.800 361.950 140.800 C 365.354 140.800,365.600 140.541,365.600 136.955 L 365.600 134.070 367.223 133.796 C 370.476 133.247,371.985 130.369,371.995 124.700 L 372.000 122.000 374.200 122.000 C 377.774 122.000,378.000 121.573,378.000 114.800 L 378.000 109.200 380.751 109.200 C 384.086 109.200,384.320 108.973,384.479 105.585 L 384.600 103.000 386.000 102.886 C 389.766 102.578,390.341 101.652,390.679 95.342 L 390.922 90.800 393.061 90.800 C 396.566 90.800,396.800 90.349,396.800 83.600 L 396.800 78.000 398.400 78.000 L 400.000 78.000 400.000 43.800 L 400.000 9.600 339.100 9.667 C 305.605 9.704,279.280 9.854,280.600 10.000 M336.800 66.632 C 335.590 67.151,334.266 67.581,333.858 67.588 C 333.449 67.594,332.099 67.860,330.858 68.178 C 329.616 68.496,327.520 68.791,326.200 68.833 C 322.049 68.965,292.746 71.210,290.011 71.606 C 288.575 71.814,286.659 71.988,285.754 71.992 C 284.069 72.000,283.451 73.775,284.534 75.500 C 284.750 75.845,284.561 76.004,283.924 76.014 L 283.000 76.028 284.000 76.600 L 285.000 77.172 283.600 77.241 C 282.830 77.279,279.230 77.433,275.600 77.582 C 271.450 77.753,278.911 77.881,295.700 77.927 C 319.516 77.992,326.785 78.277,320.367 78.894 C 316.950 79.222,316.030 81.250,316.008 88.500 L 316.000 91.200 313.574 91.200 C 309.540 91.200,309.600 91.100,309.600 97.814 L 309.600 103.600 307.080 103.600 C 303.938 103.600,303.600 103.933,303.600 107.034 L 303.600 109.508 301.445 109.777 C 297.727 110.242,297.226 111.251,297.210 118.300 L 297.200 122.400 294.614 122.400 C 291.269 122.400,291.200 122.541,291.200 129.357 L 291.200 134.766 288.100 134.883 L 285.000 135.000 284.884 138.055 L 284.768 141.110 282.209 141.384 C 278.723 141.758,278.649 141.892,278.464 148.249 L 278.307 153.600 275.982 153.600 C 272.493 153.600,272.400 153.777,272.400 160.429 L 272.400 166.000 269.680 166.000 C 266.281 166.000,266.000 166.277,266.000 169.628 L 266.000 172.297 263.649 172.563 C 260.070 172.968,259.830 173.394,259.660 179.642 L 259.520 184.800 257.188 184.800 C 253.693 184.800,253.600 184.977,253.600 191.612 L 253.600 197.166 250.500 197.283 L 247.400 197.400 247.284 200.456 L 247.168 203.512 245.029 203.779 C 241.560 204.212,241.535 204.259,241.295 210.530 L 241.087 216.000 238.572 216.000 C 234.866 216.000,234.800 216.119,234.800 222.829 L 234.800 228.400 232.080 228.400 C 228.681 228.400,228.400 228.677,228.400 232.024 L 228.400 234.689 226.321 234.935 C 222.940 235.335,222.659 235.850,222.468 241.996 L 222.305 247.200 219.781 247.200 C 216.066 247.200,216.000 247.319,216.000 254.012 L 216.000 259.566 212.900 259.683 L 209.800 259.800 209.684 262.865 L 209.568 265.929 207.615 266.198 C 204.154 266.674,203.626 267.769,203.610 274.500 L 203.600 278.400 202.200 278.400 C 201.430 278.400,200.800 278.580,200.800 278.800 C 200.800 279.020,200.969 279.200,201.175 279.200 C 201.381 279.200,201.558 279.515,201.567 279.900 C 201.577 280.285,201.643 284.020,201.714 288.200 C 201.891 298.509,202.724 300.418,205.000 295.726 C 206.409 292.823,207.302 291.761,208.617 291.432 C 209.433 291.227,209.779 290.546,210.956 286.827 C 212.701 281.318,212.895 280.972,214.775 280.013 C 216.138 279.317,216.427 278.903,217.188 276.546 C 218.506 272.466,219.875 270.047,221.361 269.170 C 222.786 268.329,223.684 266.657,224.525 263.274 C 225.020 261.281,226.790 258.737,227.950 258.350 C 228.211 258.263,229.191 256.304,230.127 253.996 C 231.690 250.142,231.965 249.725,233.506 248.875 C 235.003 248.049,235.271 247.667,235.994 245.324 C 237.124 241.665,238.699 238.939,240.190 238.059 C 241.180 237.475,241.608 236.800,242.160 234.956 C 243.338 231.016,243.707 230.270,245.405 228.400 C 247.530 226.061,248.045 225.190,249.368 221.702 C 250.394 218.999,251.829 217.200,252.958 217.200 C 253.612 217.200,254.197 216.105,254.981 213.407 C 255.943 210.096,256.948 208.269,258.537 206.939 C 260.101 205.630,260.841 204.300,261.732 201.200 C 262.194 199.594,262.845 198.529,264.144 197.254 C 265.264 196.156,266.389 194.449,267.178 192.654 C 269.356 187.696,269.749 187.088,271.285 186.299 C 272.655 185.596,272.851 185.266,273.796 182.068 C 275.239 177.186,275.788 176.130,277.285 175.357 C 278.946 174.498,279.480 173.801,280.012 171.800 C 280.783 168.900,281.350 167.821,283.085 165.959 C 284.210 164.751,285.384 162.763,286.501 160.177 C 287.909 156.918,288.474 156.053,289.767 155.174 C 291.038 154.311,291.431 153.724,291.862 152.039 C 293.030 147.475,294.522 144.771,296.410 143.795 C 297.356 143.305,299.200 140.295,299.200 139.240 C 299.200 138.267,300.772 135.757,302.131 134.562 C 303.451 133.400,304.347 131.655,306.161 126.719 C 306.568 125.611,307.170 124.736,307.626 124.592 C 308.052 124.457,308.400 124.199,308.400 124.020 C 308.400 123.840,308.746 123.603,309.170 123.492 C 309.725 123.347,310.183 122.472,310.815 120.345 C 312.067 116.134,313.411 113.684,314.976 112.761 C 316.280 111.992,317.229 110.312,318.358 106.775 C 318.608 105.991,319.545 104.641,320.440 103.775 C 322.323 101.953,323.388 100.047,324.563 96.400 C 325.307 94.089,325.611 93.666,327.293 92.600 C 328.934 91.560,329.271 91.107,329.827 89.200 C 330.684 86.265,332.672 82.841,333.826 82.316 C 334.372 82.066,335.369 80.713,336.235 79.045 C 338.008 75.627,338.680 74.800,339.685 74.800 C 340.657 74.800,342.746 72.533,342.575 71.663 C 342.504 71.298,342.234 69.785,341.977 68.300 C 341.427 65.124,340.794 64.920,336.800 66.632 " stroke="none" fill="#06642b" fill-rule="evenodd"></path><path id="path3" d="M238.500 9.891 C 239.325 9.978,240.000 10.217,240.000 10.424 C 240.000 10.631,240.315 10.806,240.700 10.813 C 241.351 10.825,241.353 10.861,240.730 11.335 C 240.107 11.809,240.112 11.878,240.800 12.307 C 241.476 12.729,241.561 13.385,241.235 15.639 C 240.870 18.157,206.960 21.879,200.600 20.100 C 198.391 19.482,190.901 19.419,106.400 19.310 L 14.600 19.190 12.109 20.236 C 9.657 21.266,8.007 23.073,6.663 26.200 C 6.157 27.378,6.341 60.075,6.872 63.188 C 7.231 65.297,7.662 66.231,9.196 68.233 C 10.232 69.585,11.331 71.562,11.640 72.627 C 12.133 74.333,13.376 75.966,15.578 77.800 C 15.842 78.020,16.900 80.177,17.929 82.593 C 19.400 86.047,20.071 87.159,21.069 87.793 C 22.596 88.765,23.701 90.615,24.587 93.683 C 25.032 95.223,25.806 96.589,26.968 97.883 C 28.633 99.737,30.380 102.739,30.995 104.800 C 31.457 106.351,33.159 108.400,33.985 108.400 C 34.543 108.400,35.006 109.130,35.824 111.300 C 37.523 115.803,38.629 117.775,40.073 118.876 C 40.956 119.549,41.657 120.614,42.162 122.045 C 43.306 125.293,44.174 126.851,45.726 128.446 C 47.191 129.951,49.275 133.733,49.772 135.789 C 49.932 136.447,51.008 137.897,52.180 139.032 C 53.450 140.262,54.503 141.710,54.805 142.643 C 55.679 145.338,57.488 148.536,59.149 150.323 C 60.222 151.478,61.041 152.930,61.632 154.723 C 62.303 156.758,62.927 157.784,64.238 159.000 C 65.402 160.081,66.426 161.638,67.393 163.800 C 69.645 168.835,69.958 169.337,71.530 170.429 C 72.805 171.315,73.174 171.955,74.177 175.029 C 75.110 177.889,75.669 178.918,76.983 180.200 C 79.094 182.258,79.919 183.584,80.676 186.132 C 81.114 187.606,81.833 188.730,83.197 190.072 C 84.583 191.437,85.449 192.804,86.366 195.075 C 88.100 199.369,88.528 200.079,89.940 201.000 C 90.857 201.597,91.387 202.459,92.034 204.400 C 93.102 207.602,95.376 211.475,96.374 211.792 C 97.105 212.024,98.229 214.011,100.151 218.472 C 100.805 219.991,101.506 220.940,102.265 221.336 C 103.139 221.793,103.852 222.943,105.367 226.338 C 106.810 229.570,107.781 231.167,109.007 232.320 C 110.218 233.460,110.813 234.431,111.169 235.846 C 111.842 238.521,113.536 241.517,114.797 242.262 C 116.006 242.976,117.603 245.690,118.578 248.688 C 119.179 250.539,121.035 252.800,121.952 252.800 C 122.112 252.800,122.829 254.285,123.545 256.100 C 125.679 261.510,125.955 262.011,127.184 262.717 C 128.349 263.385,129.996 265.802,130.004 266.854 C 130.013 268.067,132.067 271.705,133.770 273.527 C 134.767 274.592,136.047 276.529,136.616 277.832 C 138.231 281.531,138.627 282.144,139.954 283.000 C 140.636 283.440,141.296 284.250,141.421 284.800 C 142.246 288.431,143.823 291.450,146.039 293.639 C 147.754 295.333,148.495 296.424,148.935 297.906 C 149.745 300.634,150.605 302.200,152.361 304.146 C 154.078 306.049,155.763 308.884,156.162 310.544 C 156.313 311.173,157.300 312.613,158.355 313.744 C 159.650 315.131,160.501 316.516,160.972 318.000 C 162.027 321.319,164.491 324.794,165.796 324.803 C 166.617 324.808,168.112 327.668,168.660 330.284 C 168.971 331.766,169.479 333.366,169.790 333.840 C 171.103 335.845,172.374 335.816,91.000 335.600 C 4.244 335.369,9.892 335.111,7.365 339.423 L 6.300 341.242 6.565 352.721 C 6.714 359.170,6.665 365.953,6.453 368.200 C 6.087 372.081,6.112 372.311,7.299 375.931 C 9.377 382.271,8.346 382.057,36.658 382.013 C 58.101 381.980,74.113 382.357,86.800 383.195 C 89.990 383.406,95.660 383.771,99.400 384.007 C 105.584 384.397,109.017 385.009,107.698 385.487 C 107.421 385.587,107.297 385.833,107.421 386.034 C 107.545 386.235,107.435 386.400,107.175 386.400 C 106.822 386.400,106.829 386.553,107.200 387.000 C 107.571 387.447,107.578 387.600,107.225 387.600 C 106.965 387.600,106.865 387.781,107.002 388.003 C 107.139 388.224,106.954 388.519,106.592 388.658 C 106.065 388.861,106.040 388.979,106.466 389.250 C 106.808 389.466,106.351 389.607,105.200 389.640 C 104.058 389.674,103.692 389.785,104.200 389.946 C 104.640 390.086,103.380 390.301,101.400 390.424 C 99.420 390.548,104.838 390.683,113.440 390.724 C 128.865 390.799,135.708 390.561,134.772 389.983 C 134.476 389.800,134.772 389.582,135.549 389.411 C 136.607 389.179,136.776 388.984,136.628 388.168 C 136.532 387.636,136.576 387.200,136.726 387.200 C 136.877 387.200,137.000 386.622,137.000 385.916 C 137.000 384.402,137.044 384.415,125.400 382.592 C 109.831 380.155,31.694 377.692,19.513 379.254 C 15.137 379.815,13.689 379.300,11.118 376.268 C 8.585 373.279,8.448 372.769,9.110 368.802 C 9.557 366.124,9.626 362.783,9.433 353.110 L 9.187 340.820 10.694 339.826 C 13.928 337.690,9.784 337.785,90.600 338.000 C 131.960 338.110,167.240 338.053,169.000 337.874 C 174.143 337.350,175.594 335.225,173.069 331.918 C 172.337 330.959,171.255 329.118,170.663 327.826 C 170.072 326.534,168.424 324.177,167.002 322.588 C 164.683 319.997,162.400 316.368,162.400 315.274 C 162.400 315.049,161.538 313.905,160.485 312.732 C 159.276 311.385,157.993 309.285,157.001 307.027 C 156.051 304.863,154.684 302.600,153.536 301.287 C 152.359 299.943,151.240 298.074,150.586 296.363 C 149.858 294.459,148.934 292.984,147.604 291.604 C 146.289 290.240,145.267 288.618,144.389 286.502 C 143.124 283.453,142.065 281.665,140.743 280.343 C 140.375 279.975,139.336 278.163,138.434 276.316 C 137.531 274.468,135.897 271.897,134.802 270.603 C 133.593 269.173,132.402 267.175,131.766 265.510 C 131.177 263.969,130.101 262.121,129.307 261.286 C 127.206 259.075,126.140 257.312,125.023 254.200 C 124.341 252.299,123.582 251.015,122.661 250.200 C 121.231 248.935,120.681 248.035,119.046 244.294 C 118.492 243.025,117.390 241.315,116.597 240.494 C 115.805 239.672,114.282 237.200,113.213 235.000 C 112.105 232.718,110.654 230.408,109.835 229.622 C 109.046 228.863,108.400 228.012,108.400 227.730 C 108.400 226.435,105.365 220.839,103.773 219.198 C 102.718 218.112,101.608 216.374,100.976 214.819 C 99.792 211.903,97.830 208.863,96.905 208.508 C 96.564 208.377,95.484 206.544,94.504 204.435 C 93.525 202.326,92.058 199.790,91.244 198.800 C 90.431 197.810,89.160 195.596,88.420 193.880 C 87.569 191.907,86.300 189.892,84.964 188.395 C 83.577 186.840,82.543 185.178,81.946 183.541 C 81.443 182.161,80.169 179.972,79.084 178.626 C 76.634 175.586,75.385 173.454,74.840 171.386 C 74.588 170.426,73.825 169.211,72.958 168.386 C 72.077 167.548,70.749 165.417,69.601 163.000 C 68.385 160.439,67.056 158.334,65.905 157.149 C 64.695 155.903,63.761 154.392,63.048 152.526 C 62.383 150.784,61.323 149.020,60.196 147.777 C 59.210 146.690,58.403 145.571,58.402 145.290 C 58.398 144.127,55.355 138.850,53.546 136.868 C 52.476 135.695,51.600 134.552,51.600 134.327 C 51.600 133.217,48.248 127.175,46.715 125.523 C 45.758 124.490,44.649 122.740,44.251 121.634 C 43.853 120.528,42.640 118.358,41.554 116.813 C 40.469 115.267,38.976 112.675,38.237 111.053 C 37.365 109.140,36.174 107.381,34.846 106.047 C 33.721 104.915,32.800 103.800,32.800 103.569 C 32.800 102.447,29.815 96.889,28.372 95.324 C 26.755 93.569,24.811 89.992,24.804 88.756 C 24.802 88.402,24.035 87.254,23.100 86.204 C 22.165 85.154,20.410 82.299,19.200 79.859 C 17.990 77.419,16.644 75.238,16.209 75.012 C 15.313 74.545,14.620 73.767,14.063 72.600 C 8.733 61.443,8.931 62.467,9.185 47.400 C 9.348 37.691,9.270 33.807,8.861 31.317 C 7.986 25.995,12.220 22.434,18.770 22.983 C 20.437 23.122,61.220 23.273,109.400 23.318 C 205.820 23.408,198.080 23.220,200.892 25.539 C 201.541 26.074,203.132 24.974,203.187 23.952 C 203.220 23.334,209.914 23.183,240.200 23.118 C 267.047 23.060,281.018 22.805,276.047 22.465 C 274.424 22.354,267.857 19.944,266.739 19.049 C 265.131 17.762,263.135 16.231,262.691 15.944 C 262.473 15.803,262.268 14.938,262.236 14.022 C 262.202 13.045,261.935 12.204,261.589 11.985 C 261.265 11.780,261.161 11.609,261.358 11.606 C 261.556 11.603,261.231 11.150,260.638 10.600 L 259.559 9.600 248.279 9.667 C 242.076 9.704,237.675 9.805,238.500 9.891 M199.400 61.919 L 197.400 63.000 127.541 63.068 C 62.670 63.132,57.587 63.185,56.341 63.817 C 53.709 65.151,53.594 65.382,54.446 67.625 C 54.861 68.716,55.200 69.963,55.200 70.396 C 55.200 72.186,56.468 74.264,58.555 75.894 C 60.218 77.192,61.007 78.215,62.097 80.482 C 62.868 82.087,64.424 84.540,65.555 85.933 C 66.686 87.326,68.158 89.576,68.828 90.933 C 69.497 92.290,70.810 94.138,71.745 95.040 C 72.761 96.020,73.729 97.468,74.150 98.640 C 74.538 99.718,75.126 101.360,75.456 102.288 C 75.787 103.217,76.853 104.820,77.827 105.850 C 78.800 106.880,80.226 109.051,80.997 110.675 C 81.768 112.298,83.263 114.755,84.321 116.135 C 85.378 117.515,86.764 119.894,87.399 121.422 C 88.092 123.089,89.144 124.760,90.028 125.600 C 91.073 126.593,92.005 128.221,93.233 131.200 C 94.436 134.117,95.478 135.950,96.643 137.200 C 97.566 138.190,98.968 140.350,99.759 142.000 C 100.551 143.650,101.845 145.720,102.635 146.600 C 103.426 147.480,105.032 150.183,106.206 152.607 C 107.379 155.030,108.854 157.473,109.484 158.034 C 110.157 158.633,111.268 160.576,112.177 162.744 C 113.152 165.070,114.308 167.057,115.303 168.117 C 116.171 169.043,117.328 170.790,117.873 172.000 C 119.541 175.704,119.668 175.916,121.613 178.216 C 123.525 180.476,124.369 182.100,125.147 185.007 C 125.392 185.925,126.190 187.212,127.007 188.007 C 128.862 189.814,129.975 191.575,131.364 194.903 C 132.004 196.435,133.253 198.429,134.248 199.503 C 135.302 200.643,136.441 202.495,137.101 204.142 C 137.706 205.650,138.928 207.720,139.817 208.742 C 140.707 209.764,142.205 212.310,143.146 214.400 C 144.164 216.660,145.484 218.848,146.401 219.800 C 147.279 220.710,148.731 223.079,149.769 225.296 C 150.785 227.466,152.290 229.931,153.165 230.860 C 154.029 231.777,155.045 233.264,155.423 234.164 C 157.145 238.269,158.219 240.231,159.468 241.554 C 160.209 242.340,161.395 244.400,162.103 246.132 C 162.955 248.217,163.909 249.775,164.924 250.741 C 165.839 251.611,167.172 253.683,168.229 255.876 C 169.202 257.898,170.901 260.583,172.004 261.843 C 173.189 263.198,174.184 264.800,174.439 265.767 C 175.155 268.479,176.213 270.474,178.314 273.072 C 179.413 274.431,180.634 276.411,181.028 277.472 C 181.864 279.727,182.933 281.365,184.490 282.782 C 185.214 283.441,186.160 285.264,187.172 287.950 C 188.248 290.804,189.173 292.554,190.134 293.550 C 190.903 294.348,192.179 296.113,192.970 297.474 C 195.512 301.848,198.422 303.001,199.532 300.074 C 201.170 295.751,200.340 278.790,198.491 278.806 C 197.966 278.811,197.927 278.893,198.327 279.147 C 199.185 279.691,198.719 296.454,197.807 297.846 L 197.132 298.876 196.187 297.988 C 195.667 297.499,195.123 296.562,194.979 295.905 C 194.691 294.593,192.205 291.600,191.403 291.600 C 191.119 291.600,190.151 289.487,189.191 286.775 C 187.629 282.361,187.323 281.814,185.601 280.362 C 184.282 279.250,183.570 278.271,183.221 277.088 C 182.429 274.408,180.047 270.160,179.031 269.617 C 177.877 268.999,176.730 266.984,175.605 263.600 C 175.038 261.896,174.214 260.449,173.211 259.400 C 171.653 257.770,170.098 255.001,169.223 252.297 C 168.917 251.354,168.030 250.198,166.841 249.195 C 165.340 247.930,164.795 247.118,164.225 245.299 C 163.262 242.222,161.797 239.791,160.150 238.535 C 159.051 237.696,158.597 236.867,157.746 234.137 C 156.959 231.614,156.279 230.300,155.026 228.886 C 153.109 226.722,151.718 224.373,150.432 221.131 C 149.768 219.457,149.132 218.596,148.007 217.852 C 146.915 217.130,146.285 216.298,145.786 214.922 C 144.354 210.974,143.276 208.954,141.734 207.329 C 140.183 205.695,139.562 204.529,138.216 200.725 C 137.840 199.662,136.914 198.264,136.077 197.495 C 134.687 196.218,131.600 190.756,131.600 189.573 C 131.600 189.275,130.636 188.124,129.458 187.015 C 127.823 185.477,127.119 184.432,126.482 182.600 C 124.713 177.512,124.428 176.959,122.882 175.600 C 121.199 174.120,120.497 172.931,119.577 170.000 C 119.243 168.934,118.353 167.547,117.395 166.600 C 116.299 165.516,115.136 163.590,113.791 160.629 C 112.207 157.145,111.538 156.100,110.492 155.483 C 109.007 154.607,108.400 153.685,108.400 152.305 C 108.400 150.758,105.346 144.849,104.299 144.373 C 103.183 143.864,101.539 141.267,100.772 138.800 C 100.427 137.689,99.564 136.367,98.519 135.348 C 96.982 133.849,94.000 128.205,94.000 126.796 C 94.000 126.535,93.118 125.484,92.039 124.461 C 90.500 123.001,89.897 122.040,89.235 120.000 C 88.178 116.736,86.247 113.332,85.280 113.025 C 84.416 112.751,83.203 110.712,82.014 107.531 C 81.487 106.122,80.604 104.753,79.683 103.919 C 78.308 102.674,75.880 98.145,74.910 95.013 C 74.698 94.329,73.821 93.314,72.837 92.613 C 71.533 91.686,70.971 90.921,70.449 89.365 C 69.625 86.908,67.405 83.352,66.201 82.564 C 65.719 82.248,64.622 80.621,63.762 78.949 C 62.174 75.857,61.191 74.800,59.905 74.800 C 58.010 74.800,57.072 69.917,58.215 66.000 C 58.370 65.470,66.577 65.398,128.895 65.386 C 167.673 65.378,201.348 65.216,203.730 65.027 C 210.902 64.456,220.424 65.357,225.400 67.078 C 230.804 68.947,233.186 69.766,237.200 71.134 C 239.531 71.929,240.555 72.467,240.458 72.847 C 240.380 73.151,240.285 73.580,240.247 73.800 C 240.209 74.020,240.037 74.425,239.865 74.700 C 239.650 75.045,239.839 75.204,240.476 75.213 C 241.348 75.225,241.359 75.257,240.671 75.778 C 239.966 76.312,239.966 76.336,240.671 76.499 C 241.449 76.680,240.528 76.890,236.000 77.564 C 234.114 77.844,236.916 77.911,246.200 77.808 C 259.464 77.660,262.261 77.358,262.273 76.068 C 262.276 75.701,262.081 75.265,261.839 75.100 C 261.532 74.890,261.563 74.695,261.943 74.450 C 262.278 74.234,262.385 73.781,262.222 73.268 C 261.950 72.414,263.793 70.000,264.716 70.000 C 264.953 70.000,265.260 69.640,265.400 69.200 C 265.540 68.760,265.779 68.400,265.931 68.400 C 266.084 68.400,266.927 67.779,267.804 67.021 C 269.415 65.629,272.146 64.755,277.000 64.079 C 280.294 63.620,269.316 63.409,236.200 63.297 C 203.540 63.186,203.562 63.187,202.435 61.754 C 201.539 60.614,201.843 60.598,199.400 61.919 M202.676 303.476 C 202.564 303.658,202.370 304.525,202.244 305.403 L 202.016 307.000 202.603 305.229 C 203.139 303.613,203.179 302.664,202.676 303.476 M201.123 371.005 C 201.033 371.778,201.101 372.633,201.274 372.905 C 201.452 373.185,201.590 372.576,201.594 371.500 C 201.601 369.266,201.357 369.009,201.123 371.005 " stroke="none" fill="#b4ac60" fill-rule="evenodd"></path><path id="path4" d="M260.000 9.986 C 260.000 10.198,260.365 10.567,260.811 10.806 C 261.257 11.045,261.526 11.396,261.409 11.586 C 261.291 11.776,261.415 12.005,261.685 12.095 C 261.956 12.185,262.202 13.024,262.235 13.973 C 262.267 14.916,262.473 15.803,262.691 15.944 C 263.135 16.231,265.131 17.762,266.739 19.049 C 267.928 20.001,274.146 22.211,276.600 22.554 C 277.480 22.677,278.830 22.863,279.600 22.967 C 286.288 23.870,327.254 24.818,358.466 24.792 L 385.981 24.769 388.591 26.270 C 391.505 27.946,391.547 28.065,390.400 31.400 C 389.502 34.012,389.207 52.171,389.986 56.927 C 390.384 59.356,389.363 63.431,387.263 67.800 C 386.840 68.680,386.360 70.030,386.197 70.800 C 385.800 72.675,384.569 74.342,383.357 74.646 C 382.275 74.918,381.656 75.958,379.577 81.000 C 378.613 83.337,377.805 84.601,376.582 85.687 C 375.282 86.841,374.845 87.559,374.633 88.887 C 374.296 90.989,372.781 93.659,371.415 94.553 C 369.998 95.482,368.555 97.904,367.521 101.093 C 366.810 103.287,366.222 104.217,364.422 106.000 C 362.731 107.675,361.921 108.903,361.034 111.145 C 360.377 112.804,359.115 114.971,358.145 116.108 C 357.181 117.237,356.140 119.023,355.780 120.163 C 354.936 122.841,353.924 124.800,353.384 124.800 C 352.087 124.800,349.277 129.343,348.389 132.873 C 347.911 134.777,347.488 135.354,345.464 136.866 C 344.400 137.661,341.600 143.001,341.600 144.235 C 341.600 144.529,340.635 145.851,339.456 147.172 C 337.800 149.029,337.152 150.146,336.608 152.087 C 336.004 154.240,335.567 154.915,333.556 156.800 C 331.473 158.753,331.053 159.426,329.810 162.798 C 329.040 164.888,328.182 166.671,327.905 166.763 C 326.809 167.123,324.800 169.553,324.800 170.519 C 324.800 171.668,322.603 176.051,321.802 176.501 C 320.676 177.134,318.474 180.709,317.632 183.270 C 316.921 185.433,316.419 186.216,314.990 187.387 C 313.150 188.894,311.816 191.140,310.620 194.740 C 310.165 196.111,309.310 197.469,308.210 198.568 C 307.089 199.690,306.265 201.012,305.799 202.436 C 305.002 204.871,303.303 208.000,302.778 208.000 C 301.726 208.000,299.533 211.535,298.567 214.785 C 298.009 216.667,297.603 217.197,295.349 218.993 C 294.603 219.587,293.729 220.920,293.186 222.295 C 292.685 223.563,292.123 224.771,291.938 224.980 C 291.752 225.189,291.600 225.857,291.600 226.464 C 291.600 227.072,291.375 227.753,291.100 227.978 C 290.825 228.204,290.028 228.846,289.329 229.405 C 288.595 229.992,287.771 231.222,287.380 232.311 C 286.316 235.275,284.776 238.400,284.380 238.400 C 283.477 238.400,280.753 242.629,279.948 245.280 C 279.205 247.728,278.872 248.248,277.371 249.306 C 276.423 249.974,275.478 250.989,275.272 251.560 C 272.973 257.925,272.627 258.594,270.726 260.345 C 269.229 261.724,268.638 262.635,268.149 264.317 C 267.342 267.091,266.328 268.807,264.848 269.901 C 263.528 270.878,261.401 274.558,260.755 276.985 C 260.476 278.035,259.674 279.232,258.463 280.407 C 256.989 281.837,256.317 282.965,255.243 285.807 C 254.126 288.764,253.520 289.754,251.819 291.400 C 250.116 293.048,249.628 293.846,249.045 295.939 C 248.473 297.990,247.966 298.837,246.413 300.339 C 245.356 301.363,244.210 302.757,243.868 303.437 C 242.917 305.324,241.600 308.923,241.600 309.633 C 241.600 309.981,240.925 310.701,240.100 311.233 C 238.941 311.980,238.177 313.056,236.742 315.961 C 235.720 318.029,234.610 319.874,234.275 320.062 C 233.172 320.679,229.602 325.494,229.016 327.155 C 228.699 328.052,227.809 329.418,227.037 330.189 C 224.200 333.027,224.292 336.419,227.255 338.169 C 228.403 338.847,232.315 338.879,306.839 338.822 L 385.216 338.762 387.588 339.827 L 389.960 340.891 389.880 353.946 C 389.807 365.919,389.866 367.227,390.593 369.737 L 391.387 372.473 389.923 373.737 C 389.118 374.432,387.585 375.744,386.518 376.654 L 384.577 378.308 381.788 377.763 C 379.486 377.313,363.891 377.219,292.400 377.226 C 244.770 377.231,205.248 377.121,204.573 376.982 C 203.591 376.780,203.105 376.277,202.142 374.465 L 200.939 372.200 201.460 369.200 C 201.860 366.899,201.970 359.261,201.935 336.400 C 201.883 303.258,201.844 303.900,203.985 302.807 C 205.974 301.793,207.870 299.568,208.389 297.641 C 208.694 296.507,209.197 295.845,210.202 295.252 C 211.981 294.202,212.909 292.652,214.381 288.265 C 215.388 285.262,215.836 284.493,217.355 283.156 C 218.447 282.195,219.320 281.000,219.595 280.091 C 220.501 277.100,221.702 274.912,222.792 274.268 C 223.983 273.565,225.068 271.554,226.173 268.000 C 227.176 264.775,227.604 264.063,229.091 263.143 C 230.461 262.297,232.552 258.702,233.595 255.400 C 233.921 254.368,234.790 253.188,236.042 252.076 C 237.471 250.807,238.134 249.845,238.555 248.428 C 239.351 245.748,240.222 244.177,241.980 242.254 C 243.769 240.298,244.477 238.976,245.337 235.984 C 245.687 234.765,246.357 233.415,246.826 232.984 C 249.668 230.371,250.290 229.476,251.572 226.155 C 252.651 223.359,253.305 222.279,254.638 221.098 C 256.216 219.699,258.400 215.369,258.400 213.639 C 258.400 213.339,258.990 212.533,259.711 211.847 C 261.789 209.871,263.478 207.184,264.152 204.784 C 264.494 203.565,265.157 202.215,265.626 201.784 C 268.584 199.065,269.068 198.359,270.352 194.896 C 271.434 191.977,272.005 191.009,273.214 190.037 C 274.194 189.249,274.962 188.151,275.400 186.911 C 276.771 183.026,277.775 181.161,278.996 180.230 C 280.379 179.175,282.487 175.500,283.159 172.975 C 283.396 172.081,283.970 171.001,284.435 170.575 C 287.467 167.791,287.853 167.209,289.338 163.176 C 290.587 159.782,291.109 158.850,292.122 158.200 C 293.041 157.610,293.714 156.559,294.684 154.200 C 295.408 152.440,296.315 150.613,296.700 150.139 C 297.085 149.666,298.164 148.345,299.099 147.205 C 300.155 145.916,301.043 144.274,301.446 142.866 C 301.967 141.043,302.513 140.209,304.236 138.600 C 306.389 136.589,308.381 132.827,308.414 130.708 C 308.434 129.431,309.116 128.416,311.274 126.452 C 312.436 125.394,313.253 124.262,313.423 123.473 C 313.836 121.566,315.506 118.465,316.425 117.899 C 317.664 117.136,319.442 114.099,320.402 111.104 C 321.127 108.843,321.526 108.230,322.875 107.304 C 324.303 106.324,324.684 105.683,326.262 101.600 C 327.767 97.705,328.251 96.861,329.421 96.095 C 330.448 95.423,331.259 94.240,332.576 91.495 C 333.861 88.818,334.675 87.619,335.530 87.144 C 336.660 86.517,340.400 79.953,340.400 78.597 C 340.400 78.311,341.165 77.623,342.100 77.069 C 344.723 75.516,345.195 74.808,346.246 70.848 C 346.560 69.664,347.272 68.155,347.828 67.494 C 349.083 66.002,348.974 65.387,347.200 63.960 C 344.658 61.915,342.278 61.595,332.697 62.010 C 328.024 62.213,315.020 62.568,303.800 62.800 C 277.925 63.335,271.150 64.130,267.804 67.021 C 266.927 67.779,266.084 68.400,265.931 68.400 C 265.779 68.400,265.540 68.760,265.400 69.200 C 265.260 69.640,264.953 70.000,264.716 70.000 C 263.793 70.000,261.950 72.414,262.222 73.268 C 262.385 73.781,262.278 74.234,261.943 74.450 C 261.563 74.695,261.532 74.890,261.839 75.100 C 263.526 76.251,261.302 77.342,256.400 77.768 C 255.410 77.854,260.000 77.847,266.600 77.752 C 281.731 77.535,285.275 77.290,283.946 76.553 L 283.000 76.028 283.924 76.014 C 284.561 76.004,284.750 75.845,284.534 75.500 C 283.451 73.775,284.069 72.000,285.754 71.992 C 286.659 71.988,288.575 71.814,290.011 71.606 C 292.711 71.216,322.104 68.963,326.000 68.848 C 328.702 68.769,333.456 67.792,336.400 66.711 C 337.610 66.267,339.251 65.819,340.048 65.715 L 341.495 65.526 341.970 68.263 C 342.231 69.768,342.504 71.298,342.575 71.663 C 342.746 72.533,340.657 74.800,339.685 74.800 C 338.680 74.800,338.008 75.627,336.235 79.045 C 335.369 80.713,334.372 82.066,333.826 82.316 C 332.672 82.841,330.684 86.265,329.827 89.200 C 329.271 91.107,328.934 91.560,327.293 92.600 C 325.611 93.666,325.307 94.089,324.563 96.400 C 323.388 100.047,322.323 101.953,320.440 103.775 C 319.545 104.641,318.608 105.991,318.358 106.775 C 317.229 110.312,316.280 111.992,314.976 112.761 C 313.411 113.684,312.067 116.134,310.815 120.345 C 310.183 122.472,309.725 123.347,309.170 123.492 C 308.746 123.603,308.400 123.840,308.400 124.020 C 308.400 124.199,308.052 124.457,307.626 124.592 C 307.170 124.736,306.568 125.611,306.161 126.719 C 304.347 131.655,303.451 133.400,302.131 134.562 C 300.772 135.757,299.200 138.267,299.200 139.240 C 299.200 140.295,297.356 143.305,296.410 143.795 C 294.522 144.771,293.030 147.475,291.862 152.039 C 291.431 153.724,291.038 154.311,289.767 155.174 C 288.474 156.053,287.909 156.918,286.501 160.177 C 285.384 162.763,284.210 164.751,283.085 165.959 C 281.350 167.821,280.783 168.900,280.012 171.800 C 279.480 173.801,278.946 174.498,277.285 175.357 C 275.788 176.130,275.239 177.186,273.796 182.068 C 272.851 185.266,272.655 185.596,271.285 186.299 C 269.749 187.088,269.356 187.696,267.178 192.654 C 266.389 194.449,265.264 196.156,264.144 197.254 C 262.845 198.529,262.194 199.594,261.732 201.200 C 260.841 204.300,260.101 205.630,258.537 206.939 C 256.948 208.269,255.943 210.096,254.981 213.407 C 254.197 216.105,253.612 217.200,252.958 217.200 C 251.829 217.200,250.394 218.999,249.368 221.702 C 248.045 225.190,247.530 226.061,245.405 228.400 C 243.707 230.270,243.338 231.016,242.160 234.956 C 241.608 236.800,241.180 237.475,240.190 238.059 C 238.699 238.939,237.124 241.665,235.994 245.324 C 235.271 247.667,235.003 248.049,233.506 248.875 C 231.965 249.725,231.690 250.142,230.127 253.996 C 229.191 256.304,228.211 258.263,227.950 258.350 C 226.790 258.737,225.020 261.281,224.525 263.274 C 223.684 266.657,222.786 268.329,221.361 269.170 C 219.875 270.047,218.506 272.466,217.188 276.546 C 216.427 278.903,216.138 279.317,214.775 280.013 C 212.895 280.972,212.701 281.318,210.956 286.827 C 209.779 290.546,209.433 291.227,208.617 291.432 C 207.302 291.761,206.409 292.823,205.000 295.726 C 202.734 300.397,201.888 298.456,201.720 288.200 C 201.554 278.084,201.632 278.378,199.129 278.425 C 197.959 278.448,197.905 278.493,198.674 278.803 C 200.339 279.474,200.452 280.299,200.188 289.909 C 199.918 299.761,199.697 300.949,198.023 301.532 C 196.520 302.056,194.857 300.721,192.970 297.474 C 192.179 296.113,190.903 294.348,190.134 293.550 C 189.173 292.554,188.248 290.804,187.172 287.950 C 186.160 285.264,185.214 283.441,184.490 282.782 C 182.933 281.365,181.864 279.727,181.028 277.472 C 180.634 276.411,179.413 274.431,178.314 273.072 C 176.213 270.474,175.155 268.479,174.439 265.767 C 174.184 264.800,173.189 263.198,172.004 261.843 C 170.901 260.583,169.202 257.898,168.229 255.876 C 167.172 253.683,165.839 251.611,164.924 250.741 C 163.909 249.775,162.955 248.217,162.103 246.132 C 161.395 244.400,160.209 242.340,159.468 241.554 C 158.219 240.231,157.145 238.269,155.423 234.164 C 155.045 233.264,154.029 231.777,153.165 230.860 C 152.290 229.931,150.785 227.466,149.769 225.296 C 148.731 223.079,147.279 220.710,146.401 219.800 C 145.484 218.848,144.164 216.660,143.146 214.400 C 142.205 212.310,140.707 209.764,139.817 208.742 C 138.928 207.720,137.706 205.650,137.101 204.142 C 136.441 202.495,135.302 200.643,134.248 199.503 C 133.253 198.429,132.004 196.435,131.364 194.903 C 129.975 191.575,128.862 189.814,127.007 188.007 C 126.190 187.212,125.392 185.925,125.147 185.007 C 124.369 182.100,123.525 180.476,121.613 178.216 C 119.668 175.916,119.541 175.704,117.873 172.000 C 117.328 170.790,116.171 169.043,115.303 168.117 C 114.308 167.057,113.152 165.070,112.177 162.744 C 111.268 160.576,110.157 158.633,109.484 158.034 C 108.854 157.473,107.379 155.030,106.206 152.607 C 105.032 150.183,103.426 147.480,102.635 146.600 C 101.845 145.720,100.551 143.650,99.759 142.000 C 98.968 140.350,97.566 138.190,96.643 137.200 C 95.478 135.950,94.436 134.117,93.233 131.200 C 92.005 128.221,91.073 126.593,90.028 125.600 C 89.144 124.760,88.092 123.089,87.399 121.422 C 86.764 119.894,85.378 117.515,84.321 116.135 C 83.263 114.755,81.768 112.298,80.997 110.675 C 80.226 109.051,78.800 106.880,77.827 105.850 C 76.853 104.820,75.752 103.127,75.380 102.088 C 75.007 101.050,74.420 99.408,74.074 98.440 C 73.725 97.464,72.688 95.949,71.745 95.040 C 70.810 94.138,69.497 92.290,68.828 90.933 C 68.158 89.576,66.686 87.326,65.555 85.933 C 64.424 84.540,62.868 82.087,62.097 80.482 C 61.007 78.215,60.218 77.192,58.555 75.894 C 56.468 74.264,55.200 72.186,55.200 70.396 C 55.200 69.963,54.861 68.716,54.446 67.625 C 53.594 65.382,53.709 65.151,56.341 63.817 C 57.587 63.185,62.670 63.132,127.541 63.068 L 197.400 63.000 199.472 61.908 C 200.611 61.307,201.643 60.654,201.764 60.458 C 201.886 60.261,201.996 52.585,202.009 43.400 C 202.036 24.580,202.265 25.955,198.825 24.285 L 197.000 23.400 109.400 23.318 C 61.220 23.273,20.437 23.122,18.770 22.983 C 12.220 22.434,7.986 25.995,8.861 31.317 C 9.270 33.807,9.348 37.691,9.185 47.400 C 8.931 62.467,8.733 61.443,14.063 72.600 C 14.620 73.767,15.313 74.545,16.209 75.012 C 16.644 75.238,17.990 77.419,19.200 79.859 C 20.410 82.299,22.165 85.154,23.100 86.204 C 24.035 87.254,24.802 88.402,24.804 88.756 C 24.811 89.992,26.755 93.569,28.372 95.324 C 29.815 96.889,32.800 102.447,32.800 103.569 C 32.800 103.800,33.721 104.915,34.846 106.047 C 36.174 107.381,37.365 109.140,38.237 111.053 C 38.976 112.675,40.469 115.267,41.554 116.813 C 42.640 118.358,43.853 120.528,44.251 121.634 C 44.649 122.740,45.758 124.490,46.715 125.523 C 48.248 127.175,51.600 133.217,51.600 134.327 C 51.600 134.552,52.476 135.695,53.546 136.868 C 55.355 138.850,58.398 144.127,58.402 145.290 C 58.403 145.571,59.210 146.690,60.196 147.777 C 61.323 149.020,62.383 150.784,63.048 152.526 C 63.761 154.392,64.695 155.903,65.905 157.149 C 67.056 158.334,68.385 160.439,69.601 163.000 C 70.749 165.417,72.077 167.548,72.958 168.386 C 73.825 169.211,74.588 170.426,74.840 171.386 C 75.385 173.454,76.634 175.586,79.084 178.626 C 80.169 179.972,81.443 182.161,81.946 183.541 C 82.543 185.178,83.577 186.840,84.964 188.395 C 86.300 189.892,87.569 191.907,88.420 193.880 C 89.160 195.596,90.431 197.810,91.244 198.800 C 92.058 199.790,93.525 202.326,94.504 204.435 C 95.484 206.544,96.564 208.377,96.905 208.508 C 97.830 208.863,99.792 211.903,100.976 214.819 C 101.608 216.374,102.718 218.112,103.773 219.198 C 105.365 220.839,108.400 226.435,108.400 227.730 C 108.400 228.012,109.046 228.863,109.835 229.622 C 110.654 230.408,112.105 232.718,113.213 235.000 C 114.282 237.200,115.805 239.672,116.597 240.494 C 117.390 241.315,118.492 243.025,119.046 244.294 C 120.681 248.035,121.231 248.935,122.661 250.200 C 123.582 251.015,124.341 252.299,125.023 254.200 C 126.140 257.312,127.206 259.075,129.307 261.286 C 130.101 262.121,131.177 263.969,131.766 265.510 C 132.402 267.175,133.593 269.173,134.802 270.603 C 135.897 271.897,137.531 274.468,138.434 276.316 C 139.336 278.163,140.375 279.975,140.743 280.343 C 142.065 281.665,143.124 283.453,144.389 286.502 C 145.267 288.618,146.289 290.240,147.604 291.604 C 148.934 292.984,149.858 294.459,150.586 296.363 C 151.240 298.074,152.359 299.943,153.536 301.287 C 154.684 302.600,156.051 304.863,157.001 307.027 C 157.993 309.285,159.276 311.385,160.485 312.732 C 161.538 313.905,162.400 315.049,162.400 315.274 C 162.400 316.368,164.683 319.997,167.002 322.588 C 168.424 324.177,170.072 326.534,170.663 327.826 C 171.255 329.118,172.337 330.959,173.069 331.918 C 175.594 335.225,174.143 337.350,169.000 337.874 C 167.240 338.053,131.960 338.110,90.600 338.000 C 9.784 337.785,13.928 337.690,10.694 339.826 L 9.187 340.820 9.433 353.110 C 9.626 362.783,9.557 366.124,9.110 368.802 C 8.448 372.769,8.585 373.279,11.118 376.268 C 13.689 379.300,15.137 379.815,19.513 379.254 C 31.694 377.692,109.831 380.155,125.400 382.592 C 137.044 384.415,137.000 384.402,137.000 385.916 C 137.000 386.622,136.877 387.200,136.726 387.200 C 136.576 387.200,136.532 387.636,136.628 388.168 C 136.776 388.984,136.607 389.179,135.549 389.411 C 134.659 389.607,134.450 389.784,134.832 390.020 C 135.171 390.229,134.562 390.408,133.185 390.502 C 131.983 390.585,138.335 390.685,147.300 390.726 C 157.949 390.774,163.600 390.661,163.600 390.400 C 163.600 390.180,164.028 390.000,164.550 390.000 C 165.073 390.000,166.084 389.883,166.799 389.740 L 168.098 389.480 167.149 388.954 C 166.627 388.665,166.436 388.422,166.724 388.414 C 167.012 388.406,167.148 388.239,167.026 388.042 C 166.904 387.845,167.094 387.573,167.447 387.437 C 167.949 387.245,167.988 387.067,167.626 386.631 C 167.323 386.266,167.301 385.985,167.563 385.823 C 168.526 385.227,167.372 384.450,164.873 384.010 C 163.403 383.752,160.400 383.198,158.200 382.779 C 148.621 380.954,128.563 379.529,102.400 378.813 C 93.710 378.575,80.373 378.205,72.762 377.990 C 54.166 377.466,22.866 377.488,18.984 378.028 L 15.910 378.455 12.785 375.328 L 9.660 372.200 10.455 369.000 C 11.195 366.022,11.232 364.939,10.992 353.370 L 10.733 340.939 13.117 339.870 L 15.500 338.800 93.450 338.799 C 166.861 338.799,171.482 338.758,172.800 338.099 C 175.800 336.601,176.005 332.931,173.251 330.024 C 172.509 329.241,171.658 327.913,171.360 327.074 C 170.675 325.148,169.605 323.636,166.750 320.555 C 165.168 318.848,164.211 317.365,163.585 315.646 C 162.968 313.956,162.234 312.806,161.243 311.981 C 158.745 309.900,158.400 309.484,158.400 308.545 C 158.400 306.356,156.677 303.000,154.386 300.731 C 152.442 298.803,151.966 298.032,151.232 295.614 C 150.403 292.884,150.079 292.394,147.922 290.600 C 147.393 290.160,146.847 289.530,146.709 289.200 C 143.856 282.389,143.491 281.714,141.827 280.164 C 140.619 279.039,139.915 277.970,139.591 276.768 C 138.843 273.990,137.422 271.528,135.592 269.837 C 133.962 268.333,133.307 267.162,131.838 263.131 C 131.389 261.898,130.576 260.785,129.451 259.863 C 128.011 258.683,127.498 257.826,126.172 254.381 C 124.850 250.946,124.371 250.145,123.161 249.336 C 121.528 248.245,121.105 247.526,120.228 244.349 C 119.761 242.659,119.101 241.561,117.580 239.949 C 115.134 237.354,114.212 235.915,113.641 233.800 C 113.043 231.580,111.795 229.675,110.427 228.890 C 109.664 228.451,109.109 227.678,108.794 226.613 C 107.486 222.189,106.284 219.950,104.336 218.307 C 102.746 216.966,102.264 216.244,101.750 214.430 C 100.923 211.513,99.579 209.222,98.023 208.076 C 96.857 207.218,95.951 205.620,94.161 201.266 C 93.769 200.312,92.775 198.956,91.953 198.253 C 91.131 197.549,90.330 196.440,90.174 195.787 C 89.439 192.730,87.526 189.348,85.420 187.386 C 84.120 186.176,83.156 184.900,83.002 184.186 C 82.391 181.367,81.431 179.547,79.191 176.959 C 77.445 174.942,76.569 173.502,75.937 171.605 C 75.157 169.266,74.372 168.173,72.285 166.522 C 71.952 166.259,71.186 164.549,70.581 162.722 C 69.607 159.776,69.197 159.116,66.956 156.897 C 65.093 155.051,64.315 153.947,63.996 152.697 C 63.243 149.747,62.751 148.846,60.548 146.378 C 59.293 144.971,58.400 143.594,58.400 143.065 C 58.400 142.567,58.242 141.989,58.048 141.780 C 57.855 141.571,57.484 140.734,57.224 139.920 C 56.960 139.094,56.099 137.896,55.276 137.210 C 52.700 135.062,52.491 134.784,52.014 132.873 C 51.089 129.169,49.572 126.419,47.768 125.178 C 46.512 124.314,45.894 123.514,45.395 122.105 C 44.088 118.413,43.443 117.135,42.526 116.413 C 42.017 116.013,41.600 115.486,41.600 115.242 C 41.600 114.999,41.420 114.800,41.200 114.800 C 40.980 114.800,40.800 114.619,40.800 114.398 C 40.800 112.794,37.064 106.361,35.532 105.328 C 34.078 104.347,33.747 103.835,33.000 101.400 C 31.882 97.760,31.134 96.376,29.516 94.956 C 27.556 93.235,26.564 91.667,25.610 88.784 C 25.025 87.015,24.354 85.864,23.484 85.134 C 22.598 84.391,21.664 82.765,20.405 79.769 C 18.804 75.962,18.420 75.371,17.054 74.606 C 15.261 73.603,14.847 72.990,13.937 70.000 C 13.569 68.790,12.601 66.000,11.785 63.800 C 10.969 61.600,10.331 59.440,10.367 59.000 C 10.993 51.280,10.777 33.315,10.031 31.105 C 9.574 29.752,9.200 28.508,9.200 28.340 C 9.200 28.172,10.446 27.307,11.970 26.418 L 14.740 24.800 105.924 24.800 L 197.108 24.800 197.830 25.900 C 199.001 27.685,199.083 59.274,197.921 60.909 L 197.132 62.019 127.510 61.990 L 57.888 61.961 55.822 62.972 C 54.686 63.528,53.357 64.407,52.869 64.926 L 51.983 65.870 52.795 66.903 C 53.242 67.471,53.903 69.242,54.263 70.839 C 54.971 73.975,56.212 75.711,58.722 77.079 C 59.782 77.657,60.224 78.315,60.951 80.400 C 62.076 83.626,63.584 86.049,65.169 87.178 C 65.943 87.729,66.960 89.260,67.982 91.410 C 69.222 94.020,69.923 94.995,71.091 95.737 C 72.562 96.671,73.508 98.735,75.005 104.282 C 75.136 104.768,75.818 105.624,76.521 106.185 C 78.997 108.160,79.575 108.973,80.378 111.617 C 81.001 113.669,81.689 114.847,83.354 116.714 C 85.216 118.799,87.200 122.554,87.200 123.990 C 87.200 124.188,88.188 125.216,89.395 126.275 C 90.843 127.545,91.592 128.511,91.595 129.113 C 91.605 131.008,94.006 136.336,95.323 137.386 C 97.566 139.174,97.965 139.679,98.624 141.559 C 99.801 144.913,100.291 145.780,102.308 148.070 C 103.617 149.557,104.684 151.325,105.396 153.190 C 106.527 156.150,108.085 158.400,109.002 158.400 C 109.295 158.400,109.834 159.255,110.201 160.300 C 112.619 167.179,114.012 169.600,115.557 169.600 C 115.982 169.600,117.600 172.586,117.600 173.370 C 117.600 174.506,119.100 177.040,121.181 179.418 C 123.066 181.571,124.800 185.101,124.800 186.784 C 124.800 187.199,125.687 188.317,126.771 189.269 C 128.432 190.727,128.935 191.528,129.961 194.349 C 131.243 197.871,132.717 200.193,133.913 200.572 C 134.856 200.872,135.826 202.570,136.749 205.536 C 137.294 207.287,138.031 208.513,139.421 209.982 C 140.919 211.563,141.589 212.733,142.471 215.305 C 143.534 218.409,145.206 220.735,146.738 221.246 C 146.997 221.332,147.840 223.099,148.610 225.171 C 150.074 229.108,151.494 231.385,152.729 231.777 C 153.558 232.041,155.196 234.733,155.209 235.854 C 155.225 237.200,156.763 240.042,158.556 242.036 C 159.742 243.355,160.678 244.985,161.425 247.032 C 162.337 249.533,162.876 250.364,164.474 251.735 C 165.802 252.874,166.547 253.884,166.832 254.933 C 167.693 258.101,169.699 261.654,171.180 262.634 C 173.003 263.841,173.746 265.146,174.441 268.367 C 174.916 270.569,175.315 271.288,177.250 273.423 C 178.938 275.286,179.726 276.575,180.384 278.552 C 181.098 280.697,181.634 281.517,183.235 282.918 C 184.970 284.436,185.305 284.996,186.017 287.563 C 187.114 291.521,188.134 293.391,189.828 294.541 C 190.752 295.169,191.647 296.342,192.371 297.872 C 193.400 300.050,194.321 301.062,196.927 302.883 C 198.489 303.973,198.525 304.848,198.457 340.000 C 198.382 379.351,198.380 379.336,202.122 381.618 C 203.796 382.639,384.205 382.857,388.514 381.843 C 394.236 380.497,394.572 379.086,394.424 357.000 C 394.305 339.177,394.301 339.142,392.338 337.338 C 390.141 335.320,393.598 335.405,310.858 335.323 C 229.331 335.241,231.040 335.273,231.582 333.847 C 231.770 333.352,232.052 331.880,232.208 330.574 C 232.561 327.629,233.648 325.772,235.543 324.880 C 237.165 324.116,238.681 321.702,239.827 318.059 C 240.317 316.501,241.039 315.386,242.422 314.050 C 243.522 312.988,244.445 311.689,244.590 311.000 C 245.001 309.041,246.520 306.384,247.722 305.520 C 249.273 304.406,250.580 302.207,251.541 299.096 C 252.404 296.304,253.171 294.800,253.734 294.800 C 255.391 294.800,257.977 290.487,258.593 286.699 C 258.727 285.873,259.054 285.024,259.318 284.813 C 262.386 282.362,262.833 281.809,263.444 279.708 C 264.202 277.102,265.480 274.800,266.170 274.800 C 267.376 274.800,269.622 271.124,270.508 267.700 C 271.114 265.360,271.843 264.303,273.406 263.498 C 274.186 263.096,274.803 262.333,275.154 261.338 C 275.453 260.492,276.100 258.900,276.593 257.800 C 277.086 256.700,277.605 255.433,277.745 254.985 C 277.885 254.536,278.807 253.495,279.793 252.671 C 281.313 251.400,281.717 250.734,282.454 248.286 C 283.192 245.833,283.637 245.100,285.426 243.400 C 287.773 241.168,288.411 240.077,289.407 236.595 C 289.963 234.650,290.497 233.810,292.246 232.126 C 293.431 230.985,294.400 229.766,294.400 229.417 C 294.400 228.045,296.832 223.504,298.222 222.280 C 299.658 221.016,301.200 218.538,301.200 217.494 C 301.200 216.144,303.225 212.978,304.428 212.449 C 305.908 211.797,308.400 207.068,308.400 204.911 C 308.400 204.160,308.699 203.341,309.100 202.993 C 309.485 202.659,310.473 201.832,311.296 201.155 C 312.326 200.308,312.967 199.333,313.355 198.025 C 314.251 195.011,315.540 192.806,317.564 190.833 C 318.969 189.462,319.570 188.496,319.948 187.000 C 320.707 183.994,321.577 182.493,323.067 181.613 C 323.807 181.177,324.595 180.320,324.819 179.710 C 327.438 172.561,328.023 171.392,329.276 170.800 C 330.606 170.171,331.801 168.216,333.026 164.665 C 333.438 163.468,334.452 161.946,335.682 160.677 C 337.958 158.327,338.564 157.293,339.244 154.589 C 339.610 153.136,340.212 152.198,341.674 150.804 C 343.208 149.341,343.917 148.197,345.040 145.375 C 345.823 143.409,346.555 141.583,346.667 141.318 C 346.780 141.054,347.476 140.480,348.214 140.045 C 349.523 139.272,351.200 136.665,351.200 135.403 C 351.200 134.257,353.100 131.014,354.278 130.148 C 355.598 129.179,357.783 125.287,358.180 123.200 C 358.537 121.327,359.223 120.000,359.837 120.000 C 361.091 120.000,362.746 117.508,364.198 113.431 C 365.205 110.606,365.934 109.148,366.416 108.995 C 368.059 108.473,369.208 107.096,369.853 104.874 C 370.662 102.091,371.335 100.957,373.110 99.391 C 374.423 98.232,374.770 97.552,376.398 92.958 C 377.222 90.631,378.035 89.200,378.534 89.200 C 379.901 89.200,381.224 87.340,382.835 83.156 C 384.217 79.565,384.787 78.554,385.804 77.887 C 387.338 76.882,388.598 75.030,389.003 73.187 C 389.380 71.470,390.105 70.299,392.233 67.968 C 394.412 65.581,394.444 65.224,394.479 43.600 C 394.508 25.139,394.560 25.616,392.155 22.339 C 389.525 18.756,389.932 18.800,359.458 18.799 C 331.584 18.799,319.130 18.451,300.400 17.152 C 281.326 15.829,282.845 16.003,283.008 15.158 C 283.087 14.750,282.993 14.319,282.800 14.200 C 282.607 14.081,282.518 13.627,282.602 13.192 C 282.685 12.756,282.539 12.397,282.277 12.394 C 281.990 12.390,282.038 12.234,282.400 12.000 C 282.933 11.655,282.933 11.611,282.400 11.600 C 281.867 11.589,281.867 11.545,282.400 11.200 C 282.879 10.891,282.798 10.803,282.000 10.766 L 281.000 10.720 282.000 10.434 C 283.580 9.983,277.269 9.605,268.100 9.602 C 263.162 9.601,260.000 9.751,260.000 9.986 " stroke="none" fill="#856130" fill-rule="evenodd"></path></g></svg>