<?xml version="1.0" encoding="utf-8"?>
<!-- Generator: Adobe Illustrator 28.0.0, SVG Export Plug-In . SVG Version: 6.00 Build 0)  -->
<svg version="1.1" id="Layer_1" xmlns="http://www.w3.org/2000/svg" xmlns:xlink="http://www.w3.org/1999/xlink" x="0px" y="0px"
	 viewBox="0 0 221 136.2" style="enable-background:new 0 0 221 136.2;" xml:space="preserve">
<style type="text/css">
	.st0{fill:none;stroke:#87693b;}
	.st1{fill:none;stroke:#87693b;stroke-width:1;stroke-miterlimit:4;}
</style>
<path class="st0" d="M214,133.3h-10"/>
<path class="st0" d="M202,133.3h-1"/>
<rect x="216.7" y="131.8" transform="matrix(0.7071 -0.7071 0.7071 0.7071 -30.3764 193.3216)" class="st1" width="3" height="3"/>
<path class="st0" d="M218.2,128.9v-10"/>
<path class="st0" d="M218.2,116.9v-1"/>
<path class="st0" d="M7,133.3h10"/>
<path class="st0" d="M19,133.3h1"/>
<rect x="1.3" y="131.8" transform="matrix(0.7071 -0.7071 0.7071 0.7071 -93.4489 41.051)" class="st1" width="3" height="3"/>
<path class="st0" d="M2.8,128.9v-10"/>
<path class="st0" d="M2.8,116.9v-1"/>
<path class="st0" d="M214,2.8h-10"/>
<path class="st0" d="M202,2.8h-1"/>
<rect x="216.7" y="1.3" transform="matrix(0.7071 -0.7071 0.7071 0.7071 61.901 155.0991)" class="st1" width="3" height="3"/>
<path class="st0" d="M218.2,7.2v10"/>
<path class="st0" d="M218.2,19.2v1"/>
<path class="st0" d="M7,3.2h10"/>
<path class="st0" d="M19,3.2h1"/>
<rect x="1.3" y="1.7" transform="matrix(0.7071 -0.7071 0.7071 0.7071 -1.4037 2.9246)" class="st1" width="3" height="3"/>
<path class="st0" d="M2.8,7.6v10"/>
<path class="st0" d="M2.8,19.6v1"/>
<path class="st0" d="M3,23.3v89"/>
<path class="st0" d="M218,23.3v89"/>
<path class="st0" d="M23,2.8h174"/>
<path class="st0" d="M23,133.3h174"/>
</svg>
