<svg width="329" height="223" viewBox="0 0 329 223" fill="none" xmlns="http://www.w3.org/2000/svg">
<path d="M23.8525 3.95801H20.5999L4.95408 19.6038V22.8564" stroke="#696B78" stroke-width="0.53951"/>
<line y1="-0.269755" x2="21" y2="-0.269755" transform="matrix(0.7071 -0.707114 0.7071 0.707114 3.19236 17.1924)" stroke="#696B78" stroke-width="0.53951"/>
<line x1="10.0016" y1="9.38313" x2="0.809251" y2="0.190714" stroke="#696B78" stroke-width="0.53951"/>
<line x1="9.92261" y1="9.19238" x2="9.9226" y2="0.192383" stroke="#696B78" stroke-width="0.53951"/>
<path d="M10.0361 9.61426L1.71604 9.61425" stroke="#696B78" stroke-width="0.53951"/>
<path d="M4.95413 199L4.95413 202.253L20.5999 217.898L23.8525 217.898" stroke="#696B78" stroke-width="0.53951"/>
<line y1="-0.269755" x2="21" y2="-0.269755" transform="matrix(-0.707113 -0.7071 0.707113 -0.7071 18.1924 219.656)" stroke="#696B78" stroke-width="0.53951"/>
<line x1="10.3832" y1="212.847" x2="1.19075" y2="222.039" stroke="#696B78" stroke-width="0.53951"/>
<line x1="10.1924" y1="212.926" x2="1.19241" y2="212.926" stroke="#696B78" stroke-width="0.53951"/>
<path d="M10.6182 212.812L10.6182 221.133" stroke="#696B78" stroke-width="0.53951"/>
<path d="M305 217.898L308.253 217.898L323.898 202.253L323.898 199" stroke="#696B78" stroke-width="0.53951"/>
<line y1="-0.269755" x2="21" y2="-0.269755" transform="matrix(-0.707099 0.707114 -0.707099 -0.707114 325.66 204.656)" stroke="#696B78" stroke-width="0.53951"/>
<line y1="-0.269755" x2="13" y2="-0.269755" transform="matrix(0.707106 0.707108 -0.707109 0.707104 318.66 212.656)" stroke="#696B78" stroke-width="0.53951"/>
<line x1="318.93" y1="212.656" x2="318.93" y2="221.656" stroke="#696B78" stroke-width="0.53951"/>
<path d="M318.816 212.234L327.136 212.234" stroke="#696B78" stroke-width="0.53951"/>
<path d="M305 3.9502H308.253L323.898 19.596V22.8486" stroke="#696B78" stroke-width="0.53951"/>
<line y1="-0.269755" x2="21" y2="-0.269755" transform="matrix(-0.7071 -0.707114 -0.7071 0.707114 325.656 17.1924)" stroke="#696B78" stroke-width="0.53951"/>
<line y1="-0.269755" x2="13" y2="-0.269755" transform="matrix(0.707105 -0.707109 -0.707109 -0.707105 318.656 9.19238)" stroke="#696B78" stroke-width="0.53951"/>
<line y1="-0.269755" x2="9" y2="-0.269755" transform="matrix(4.37105e-08 -1 -1 -4.37123e-08 318.656 9.19238)" stroke="#696B78" stroke-width="0.53951"/>
<path d="M318.812 9.61426L327.133 9.61425" stroke="#696B78" stroke-width="0.53951"/>
<path d="M306 3.73025H24V4.26975H306V3.73025Z" fill="#696B78"/>
<path d="M23 218.27L305 218.27L305 217.73L23 217.73L23 218.27Z" fill="#696B78"/>
<path d="M4.73024 22L4.73025 199L5.26975 199L5.26975 22L4.73024 22Z" fill="#696B78"/>
<path d="M324.27 200L324.27 23L323.73 23L323.73 200L324.27 200Z" fill="#696B78"/>
</svg>
