<?xml version="1.0" encoding="UTF-8"?>
<svg id="Layer_1" xmlns="http://www.w3.org/2000/svg" xmlns:xlink="http://www.w3.org/1999/xlink" version="1.1" viewBox="0 0 32.3 23.3">
  <!-- Generator: Adobe Illustrator 29.7.1, SVG Export Plug-In . SVG Version: 2.1.1 Build 8)  -->
  <defs>
    <style>
      .st0 {
        mask: url(#mask);
      }

      .st1 {
        fill: #fff;
      }
    </style>
    <mask id="mask" x="0" y="14.8" width="31.2" height="8.5" maskUnits="userSpaceOnUse">
      <g id="mask0_566_10110">
        <path class="st1" d="M31.2,14.8H0v8.5h31.2v-8.5Z"/>
      </g>
    </mask>
  </defs>
  <path class="st1" d="M5.9.2v4.8h-2.3V.2H0v13h3.6v-5h2.3v5h3.5V.2h-3.5ZM25.6,4c-1.4,0-2.6,1.2-2.6,2.6s1.2,2.6,2.6,2.6,2.6-1.2,2.6-2.6-1.2-2.6-2.6-2.6ZM25.6,0c-3.6,0-5.5,2.7-6,3.8,0-1.6-1.6-3.5-3.5-3.5h-6v13h5.6c2.3,0,3.9-2,3.9-3.6.5,1.1,2.3,3.7,5.9,3.7,3.6,0,6.6-3,6.6-6.7C32.3,2.9,29.3,0,25.6,0ZM15.3,10.2h-1.8v-2.2h1.8c.5,0,.9.5.9,1.1s-.4,1.1-.9,1.1ZM15.4,5.3h-1.8v-2.2h1.8c.5,0,.9.5.9,1.1s-.4,1.1-.9,1.1ZM17.7,6.6c.4,0,1.1-.5,1.3-.8,0,.4,0,1.4,0,1.8-.3-.4-.9-.9-1.3-1ZM25.6,9.9c-1.8,0-3.3-1.5-3.3-3.3s1.5-3.3,3.3-3.3,3.3,1.5,3.3,3.3-1.5,3.3-3.3,3.3ZM25.6,4c-1.4,0-2.6,1.2-2.6,2.6s1.2,2.6,2.6,2.6,2.6-1.2,2.6-2.6-1.2-2.6-2.6-2.6ZM25.6,4c-1.4,0-2.6,1.2-2.6,2.6s1.2,2.6,2.6,2.6,2.6-1.2,2.6-2.6-1.2-2.6-2.6-2.6Z"/>
  <g class="st0">
    <g>
      <path class="st1" d="M11.9,23.2v-5.1c0-2.2-.6-3.3-2.5-3.3s-2.2.9-2.8,1.5c-.3-1-1-1.5-2.2-1.5s-1.9.7-2.5,1.2v-1H0v8.2h1.9v-5.5c.6-.5,1.5-1.2,2.2-1.2s.9.6.9,1.6v5.1h1.9v-5.1c0-.1,0-.3,0-.4.6-.5,1.5-1.2,2.2-1.2s.9.6.9,1.6v5.1h1.9Z"/>
      <path class="st1" d="M27.7,19c1.3-1.2,2.4-2.5,3.4-4h-2.4c-.6,1-1.3,1.9-2.2,2.8-.9-.9-1.6-1.8-2.2-2.8h-2.4c1,1.5,2.1,2.8,3.4,4-1.3,1.2-2.5,2.7-3.6,4.2h2.4c.6-1.1,1.4-2,2.4-3,.9.9,1.7,1.9,2.4,3h2.4c-1.1-1.6-2.2-3-3.6-4.2Z"/>
      <path class="st1" d="M16.8,21.5c-1.4,0-2.5-1.1-2.5-2.5s1.1-2.5,2.5-2.5,2.5,1.1,2.5,2.5-1.1,2.5-2.5,2.5ZM19.3,15v1c-.7-.8-1.6-1.2-2.7-1.2-2.2,0-4,1.9-4,4.3s1.8,4.2,4,4.2,2-.4,2.7-1.2v1.1h1.9v-8.2h-1.9Z"/>
    </g>
  </g>
</svg>