<?xml version="1.0" encoding="UTF-8"?>
<svg id="Layer_1" xmlns="http://www.w3.org/2000/svg" xmlns:xlink="http://www.w3.org/1999/xlink" version="1.1" viewBox="0 0 125 124">
  <!-- Generator: Adobe Illustrator 29.2.1, SVG Export Plug-In . SVG Version: 2.1.0 Build 116)  -->
  <defs>
    <style>
      .st0 {
        mask: url(#mask);
      }

      .st1 {
        fill: #fff;
      }

      .st1, .st2 {
        fill-rule: evenodd;
      }

      .st3 {
        fill: #c2bbff;
      }

      .st2 {
        fill: #353643;
      }
    </style>
    <mask id="mask" x="5.4" y="4.9" width="113.7" height="113.7" maskUnits="userSpaceOnUse">
      <g id="path-2-inside-1_7371_28669">
        <path class="st1" d="M11.9,61.1l-6-6C9,28.7,30.3,7.8,56.9,5.3l5.4,5.4,5.4-5.4c26.6,2.5,47.9,23.4,51,49.9l-6,6,6.1,6.1c-2.5,26.6-23.4,47.9-49.8,51l-6.7-6.7-6.7,6.7c-26.4-3.1-47.3-24.4-49.8-51l6.1-6.1Z"/>
      </g>
    </mask>
  </defs>
  <path class="st2" d="M7.2,61.3l-6.6-6.6C4.1,25.7,27.4,2.8,56.6,0l5.9,5.9L68.4,0c29.2,2.8,52.5,25.7,55.9,54.7l-6.6,6.6,6.7,6.7c-2.8,29.2-25.7,52.6-54.7,56l-7.3-7.4-7.3,7.4C26.2,120.6,3.3,97.2.5,68l6.7-6.7Z"/>
  <g class="st0">
    <path class="st3" d="M5.9,55.1h-.3s0,.1,0,.1h.1c0,.1.2-.1.2-.1ZM11.9,61.1l.2.2.2-.2-.2-.2-.2.2ZM56.9,5.3l.2-.2h-.1c0-.1-.2,0-.2,0v.3ZM62.3,10.7l-.2.2.2.2.2-.2-.2-.2ZM67.6,5.3v-.3s-.1,0-.1,0h-.1c0,.1.2.4.2.4ZM118.6,55.1l.2.2h.1c0-.1,0-.3,0-.3h-.3ZM112.6,61.1l-.2-.2-.2.2.2.2.2-.2ZM118.8,67.2h.3s0-.1,0-.1h-.1c0-.1-.2.1-.2.1ZM69,118.2l-.2.2h.1c0,.1.2,0,.2,0v-.3ZM62.3,111.5l.2-.2-.2-.2-.2.2.2.2ZM55.6,118.2v.3s.1,0,.1,0h.1c0-.1-.2-.4-.2-.4ZM5.8,67.2l-.2-.2h-.1c0,.1,0,.3,0,.3h.3ZM5.7,55.4l6,6,.5-.5-6-6-.5.5ZM56.9,4.9C30.1,7.4,8.7,28.5,5.6,55.1h.7C9.3,28.9,30.5,8.1,56.9,5.6v-.7ZM62.5,10.4l-5.4-5.4-.5.5,5.4,5.4.5-.5ZM67.4,5l-5.4,5.4.5.5,5.4-5.4-.5-.5ZM119,55.1c-3.1-26.6-24.5-47.6-51.3-50.2v.7c26.4,2.5,47.5,23.3,50.6,49.5h.7ZM112.9,61.3l6-6-.5-.5-6,6,.5.5ZM119,67l-6.1-6.1-.5.5,6.1,6.1.5-.5ZM69,118.6c26.6-3.1,47.6-24.5,50.1-51.3h-.7c-2.5,26.4-23.2,47.6-49.5,50.7v.7ZM62,111.8l6.7,6.7.5-.5-6.7-6.7-.5.5ZM55.8,118.5l6.7-6.7-.5-.5-6.7,6.7.5.5ZM5.4,67.2c2.5,26.8,23.5,48.2,50.1,51.3v-.7c-26.2-3.1-46.9-24.3-49.4-50.7h-.7ZM11.6,60.9l-6.1,6.1.5.5,6.1-6.1-.5-.5Z"/>
  </g>
</svg>