<?xml version="1.0" encoding="UTF-8"?>
<svg id="Layer_1" xmlns="http://www.w3.org/2000/svg" xmlns:xlink="http://www.w3.org/1999/xlink" version="1.1" viewBox="0 0 21.4 16.4">
  <!-- Generator: Adobe Illustrator 29.7.1, SVG Export Plug-In . SVG Version: 2.1.1 Build 8)  -->
  <defs>
    <style>
      .st0 {
        fill: none;
      }

      .st1 {
        fill: #fff;
      }

      .st2 {
        fill: red;
      }

      .st3 {
        clip-path: url(#clippath);
      }
    </style>
    <clipPath id="clippath">
      <rect class="st0" x="0" y="0" width="21.4" height="15"/>
    </clipPath>
  </defs>
  <g class="st3">
    <g>
      <path class="st2" d="M20.9,2.3c-.2-.9-1-1.6-1.9-1.9-1.7-.4-8.4-.4-8.4-.4,0,0-6.7,0-8.4.4-.9.2-1.6,1-1.9,1.9-.4,1.7-.4,5.1-.4,5.1,0,0,0,3.5.4,5.1.2.9,1,1.6,1.9,1.9,1.7.4,8.4.4,8.4.4,0,0,6.7,0,8.4-.4.9-.2,1.6-1,1.9-1.9.4-1.7.4-5.1.4-5.1,0,0,0-3.5-.4-5.1h0Z"/>
      <path class="st1" d="M8.6,10.7l5.6-3.2-5.6-3.2v6.4Z"/>
    </g>
  </g>
</svg>