<?xml version="1.0" encoding="utf-8"?>
<!-- Generator: Adobe Illustrator 27.0.0, SVG Export Plug-In . SVG Version: 6.00 Build 0)  -->
<svg version="1.1" id="Layer_2" xmlns="http://www.w3.org/2000/svg" xmlns:xlink="http://www.w3.org/1999/xlink" x="0px" y="0px"
	 viewBox="0 0 27 27" style="enable-background:new 0 0 27 27;" xml:space="preserve">
<style type="text/css">
	.st0{fill-rule:evenodd;clip-rule:evenodd;fill:#FFFFFF;}
</style>
<path class="st0" d="M15.5,4.6h-0.2c0-1-0.7-1.8-1.7-2.1l-0.4-0.1l0.4-0.1c0.9-0.3,1.6-1.1,1.7-2.1h0.2c0,1,0.7,1.8,1.7,2.1l0.4,0.1
	l-0.4,0.1C16.2,2.8,15.6,3.7,15.5,4.6z M1,13.2C1,13.2,1,13.2,1,13.2L1,13.2c-0.2,0-0.3-0.1-0.4-0.2c-0.1-0.1-0.1-0.3-0.1-0.4
	C0.9,7.3,4.6,3,9.7,1.7c0.3-0.1,0.6,0.1,0.7,0.4c0.1,0.3-0.1,0.6-0.4,0.7c-4.6,1.2-8,5.2-8.4,9.9C1.6,12.9,1.3,13.2,1,13.2z
	 M19.1,6.8c-0.2-0.2-0.5-0.2-0.7,0c-0.2,0.2-0.2,0.5,0,0.7c1.7,1.6,2.7,3.8,2.7,6.1c0,3.9-2.8,7.3-6.6,8.1C14.1,21.8,14,22,14,22.3
	c0,0.2,0.3,0.4,0.5,0.4c0,0,0.1,0,0.1,0c4.3-0.9,7.4-4.7,7.4-9.1C22,11,20.9,8.5,19.1,6.8z M6.4,13.3c0,0.3,0,0.6,0.1,0.9
	c0,0.2,0.2,0.4,0.4,0.4c0,0,0,0,0.1,0c0.2,0,0.4-0.3,0.4-0.5c0-0.3-0.1-0.5-0.1-0.8c0-2.9,2.4-5.3,5.3-5.3c0.3,0,0.6,0,1,0.1
	c0.1,0,0.2,0,0.3-0.1C14,7.9,14,7.8,14.1,7.7c0-0.2-0.1-0.5-0.4-0.5c-0.4-0.1-0.7-0.1-1.1-0.1C9.2,7.1,6.4,9.9,6.4,13.3z M18.2,13.4
	c0,1-0.3,1.9-1,2.7c-0.2,0.2-0.1,0.5,0.1,0.6c0.1,0.1,0.2,0.1,0.3,0.1c0.1,0,0.3-0.1,0.3-0.2c0.8-0.9,1.2-2.1,1.2-3.3
	c0-0.3,0-0.6-0.1-1c0-0.2-0.3-0.4-0.5-0.4c-0.1,0-0.2,0.1-0.3,0.2c-0.1,0.1-0.1,0.2-0.1,0.3C18.1,12.9,18.2,13.1,18.2,13.4
	L18.2,13.4z M4.7,8.9c0.1-0.2,0.4-0.3,0.7-0.2c0.2,0.1,0.3,0.4,0.2,0.7c-0.8,1.3-1.2,2.7-1.2,4.2c0,1.2,0.2,2.3,0.7,3.4
	c0.1,0.3,0,0.5-0.3,0.7c-0.1,0-0.1,0-0.2,0c-0.2,0-0.4-0.1-0.5-0.3c-0.5-1.2-0.8-2.5-0.8-3.8C3.4,11.9,3.9,10.3,4.7,8.9z M19.7,22.6
	c-0.1,0-0.3,0-0.4,0.1c-2.7,2-6.1,2.6-9.4,1.8c-0.3-0.1-0.5,0.1-0.6,0.4c-0.1,0.3,0.1,0.5,0.4,0.6c1,0.3,2,0.4,3.1,0.4
	c2.5,0,5-0.8,7.1-2.3c0.1-0.1,0.2-0.2,0.2-0.3c0-0.1,0-0.3-0.1-0.4C19.9,22.7,19.8,22.6,19.7,22.6L19.7,22.6z M24.4,13.2
	c-0.3,0-0.5-0.2-0.5-0.5l0,0c-0.2-2.6-1.3-5.1-3.2-7c-0.2-0.2-0.2-0.5,0-0.7c0.2-0.2,0.5-0.2,0.7,0c2,2.1,3.3,4.8,3.5,7.7
	c0,0.1,0,0.3-0.1,0.4C24.7,13.1,24.6,13.2,24.4,13.2C24.5,13.2,24.5,13.2,24.4,13.2z M2.3,17.4c0-0.5-0.4-0.8-0.8-0.8
	c-0.5,0-0.8,0.4-0.8,0.8c0,0.5,0.4,0.8,0.8,0.8C1.9,18.2,2.3,17.8,2.3,17.4z M15,18.4c0,0.6-0.4,1-1,1s-1-0.4-1-1c0-0.6,0.4-1,1-1
	S15,17.8,15,18.4z M8.3,6.4C8.3,6.2,8.1,6,7.9,6C7.6,6,7.4,6.2,7.4,6.4c0,0.2,0.2,0.5,0.5,0.5C8.1,6.9,8.3,6.7,8.3,6.4z M26,18.8
	c-0.9-0.3-1.5-1.1-1.6-2h-0.2c0,0.9-0.7,1.7-1.6,2l-0.4,0.1l0.4,0.1c0.9,0.3,1.5,1.1,1.6,2h0.2c0-0.9,0.7-1.7,1.6-2l0.4-0.1L26,18.8
	z M12.6,15.1L10,17.8v0c-0.1,0.6-0.3,1-0.7,1.4c-0.4,0.4-0.8,0.5-1.3,0.7l-4.3,4.5c-0.1,0.1-0.1,0.1-0.2,0.1h0c-0.1,0-0.2,0-0.2-0.1
	c0,0-0.2-0.2-0.4-0.5c0,0-0.1-0.1-0.1-0.1c-0.3-0.3-0.6-0.7-0.6-0.7C2,23,2,23,2,22.9c0-0.1,0-0.2,0.1-0.2l4.4-4.3c0,0,0-0.1,0-0.1
	c0,0,0,0,0-0.1l0,0c0.1-0.4,0.3-0.8,0.6-1.1c0.4-0.4,0.8-0.6,1.4-0.7l2.7-2.7c0.1-0.4,0.2-0.7,0.6-1c0.3-0.3,0.5-0.5,1.1-0.6
	l2.9-2.8l0.1,0c0,0,0.1,0,0.2,0h0c0.2,0,0.4,0,0.7,0.3c0.5,0.5,0.2,0.9,0.1,1.1l0,0l0,0l-2.7,2.8c-0.1,0.5-0.2,0.8-0.6,1.2
	C13.3,14.8,13.1,14.9,12.6,15.1L12.6,15.1L12.6,15.1z"/>
</svg>
